<svg width="469" height="175" viewBox="0 0 469 175" fill="none" xmlns="http://www.w3.org/2000/svg">
<g filter="url(#filter0_i_24_2)">
<mask id="mask0_24_2" style="mask-type:luminance" maskUnits="userSpaceOnUse" x="317" y="0" width="152" height="148">
<path d="M317 0H469V148H317V0Z" fill="white"/>
</mask>
<g mask="url(#mask0_24_2)">
<mask id="mask1_24_2" style="mask-type:luminance" maskUnits="userSpaceOnUse" x="317" y="0" width="152" height="148">
<path d="M453.898 147.868C454.182 147.87 454.465 147.861 454.748 147.846C455.03 147.831 455.313 147.807 455.595 147.774C455.876 147.742 456.158 147.701 456.436 147.653C456.716 147.603 456.994 147.547 457.269 147.482C457.546 147.417 457.821 147.343 458.092 147.263C458.363 147.182 458.633 147.094 458.899 146.996C459.168 146.9 459.43 146.796 459.692 146.683C459.953 146.572 460.211 146.452 460.464 146.326C460.718 146.197 460.969 146.064 461.215 145.922C461.461 145.78 461.704 145.631 461.941 145.475C462.179 145.32 462.411 145.157 462.64 144.988C462.869 144.819 463.091 144.642 463.31 144.461C463.529 144.278 463.741 144.09 463.948 143.895C464.157 143.7 464.359 143.498 464.554 143.293C464.75 143.086 464.94 142.874 465.124 142.655C465.307 142.438 465.485 142.215 465.656 141.988C465.826 141.759 465.991 141.526 466.148 141.288C466.306 141.051 466.457 140.809 466.601 140.563C466.744 140.315 466.881 140.065 467.01 139.811C467.139 139.557 467.261 139.299 467.377 139.037C467.49 138.776 467.597 138.511 467.697 138.244C467.796 137.975 467.887 137.705 467.972 137.431C468.055 137.159 468.131 136.884 468.199 136.605C468.267 136.328 468.328 136.049 468.379 135.769C468.432 135.487 468.476 135.204 468.511 134.92C468.547 134.638 468.574 134.353 468.595 134.069C468.613 133.783 468.625 133.497 468.629 133.212C468.63 132.926 468.625 132.64 468.612 132.355C468.6 132.069 468.578 131.783 468.547 131.5C468.518 131.216 468.481 130.932 468.433 130.649C468.388 130.367 468.333 130.087 468.272 129.808C468.209 129.529 468.14 129.252 468.062 128.977C467.984 128.703 467.899 128.429 467.804 128.161C467.711 127.891 467.609 127.624 467.5 127.359C467.392 127.095 467.275 126.835 467.151 126.577C467.027 126.32 466.896 126.067 466.757 125.817C466.62 125.568 466.474 125.323 466.321 125.082C466.169 124.841 466.009 124.605 465.843 124.372C465.678 124.141 465.505 123.914 465.326 123.693C465.147 123.471 464.961 123.255 464.771 123.045C464.579 122.833 464.381 122.628 464.177 122.429C463.975 122.229 463.767 122.036 463.551 121.849C463.337 121.663 463.117 121.482 462.893 121.307C462.667 121.133 462.438 120.965 462.204 120.804C461.97 120.643 461.731 120.49 461.488 120.342C461.244 120.195 460.996 120.055 460.745 119.923C460.494 119.79 460.24 119.665 459.982 119.547C459.722 119.431 459.461 119.32 459.196 119.217C458.932 119.116 458.664 119.02 458.394 118.935C458.124 118.847 457.851 118.769 457.576 118.697C457.303 118.627 457.027 118.564 456.747 118.509C456.469 118.454 456.19 118.408 455.909 118.369C455.627 118.331 455.345 118.3 455.064 118.278C454.781 118.256 454.497 118.242 454.214 118.237C453.931 118.232 453.647 118.235 453.364 118.245C453.081 118.257 452.797 118.276 452.516 118.304C452.233 118.331 451.951 118.367 451.671 118.411C451.391 118.456 451.113 118.507 450.835 118.567C450.558 118.627 450.283 118.695 450.01 118.772C449.737 118.849 449.466 118.933 449.198 119.025C448.93 119.118 448.663 119.217 448.4 119.325C448.137 119.432 447.878 119.547 447.622 119.67C447.367 119.793 447.114 119.923 446.865 120.06C446.617 120.197 446.373 120.342 446.132 120.495L411.919 85.9405C412.414 85.3008 412.88 84.6406 413.318 83.9599C413.754 83.2774 414.16 82.5778 414.533 81.8595C414.908 81.1411 415.249 80.4073 415.556 79.6581C415.864 78.9073 416.138 78.1461 416.379 77.3713C416.618 76.5965 416.821 75.8131 416.991 75.0195C417.161 74.2258 417.293 73.427 417.391 72.6214C417.488 71.8158 417.549 71.0085 417.574 70.1978C417.6 69.387 417.588 68.5763 417.541 67.7655C417.491 66.9565 417.408 66.1509 417.288 65.3487C417.167 64.5465 417.011 63.7512 416.82 62.9626C416.628 62.1741 416.402 61.3976 416.141 60.6296C415.88 59.8616 415.585 59.109 415.255 58.3684C414.926 57.6278 414.563 56.9043 414.17 56.1962C413.776 55.4881 413.35 54.8005 412.896 54.1317C412.439 53.4629 411.954 52.8164 411.44 52.1921C410.926 51.5678 410.385 50.9691 409.818 50.3944L424.944 30.9075C425.214 31.0341 425.487 31.1538 425.763 31.2633C426.04 31.3744 426.32 31.4771 426.603 31.5694C426.886 31.6635 427.171 31.749 427.46 31.8243C427.748 31.8995 428.038 31.968 428.33 32.0261C428.622 32.0843 428.915 32.1339 429.21 32.1732C429.505 32.2143 429.802 32.2451 430.099 32.2673C430.396 32.2895 430.693 32.3015 430.99 32.3066C431.288 32.31 431.585 32.3049 431.884 32.2895C432.181 32.2758 432.478 32.2519 432.773 32.2194C433.07 32.1869 433.365 32.1458 433.658 32.0962C433.952 32.0449 434.244 31.9851 434.532 31.9166C434.822 31.8482 435.11 31.7713 435.395 31.6857C435.68 31.6002 435.964 31.5044 436.242 31.4018C436.522 31.2975 436.798 31.1863 437.072 31.0666C437.345 30.9451 437.613 30.8168 437.877 30.68C438.144 30.5432 438.403 30.3995 438.659 30.2473C438.917 30.0933 439.168 29.9343 439.414 29.7649C439.662 29.5973 439.903 29.4211 440.139 29.2398C440.374 29.0568 440.605 28.867 440.831 28.6685C441.055 28.4718 441.274 28.2683 441.486 28.0579C441.698 27.8475 441.905 27.632 442.103 27.408C442.303 27.1856 442.495 26.9564 442.682 26.7221C442.867 26.486 443.045 26.2466 443.216 26.0003C443.387 25.7557 443.55 25.5043 443.706 25.2494C443.862 24.9928 444.01 24.7328 444.151 24.4677C444.292 24.2026 444.424 23.9341 444.548 23.6621C444.672 23.3885 444.787 23.1131 444.895 22.8326C445.002 22.5521 445.101 22.2698 445.192 21.9842C445.282 21.6968 445.364 21.4095 445.437 21.117C445.51 20.8262 445.574 20.5337 445.63 20.2396C445.684 19.9436 445.732 19.6477 445.769 19.3501C445.806 19.0525 445.835 18.7532 445.854 18.4539C445.874 18.1545 445.884 17.8535 445.886 17.5542C445.888 17.2531 445.879 16.9538 445.862 16.6545C445.847 16.3552 445.822 16.0558 445.786 15.7565C445.752 15.4589 445.708 15.163 445.655 14.8671C445.603 14.5712 445.542 14.277 445.472 13.9862C445.401 13.6937 445.323 13.4047 445.235 13.1173C445.147 12.8317 445.052 12.5478 444.946 12.2655C444.841 11.985 444.728 11.7079 444.607 11.4343C444.485 11.1589 444.356 10.8886 444.219 10.6235C444.079 10.3567 443.935 10.095 443.781 9.83843C443.628 9.58016 443.467 9.32872 443.297 9.08071C443.129 8.83441 442.953 8.59153 442.77 8.35549C442.587 8.11945 442.397 7.88854 442.2 7.66277C442.001 7.4387 441.798 7.21977 441.587 7.00767C441.377 6.79387 441.162 6.58862 440.938 6.39021C440.715 6.19009 440.486 5.99852 440.252 5.81379C440.018 5.62736 439.779 5.44947 439.533 5.28014C439.289 5.1091 439.038 4.94661 438.783 4.79096C438.529 4.63531 438.269 4.48821 438.006 4.34967C437.742 4.20941 437.474 4.07942 437.202 3.95627C436.931 3.83312 436.656 3.71852 436.378 3.61247C436.099 3.50642 435.818 3.40893 435.533 3.31999C435.248 3.23104 434.961 3.15065 434.673 3.08053C434.383 3.00869 434.093 2.9454 433.799 2.89238C433.506 2.83936 433.212 2.79489 432.917 2.75897C432.62 2.72476 432.323 2.69739 432.026 2.68029C431.729 2.66318 431.433 2.65463 431.134 2.65634C430.837 2.65634 430.539 2.6666 430.242 2.68713C429.945 2.70594 429.648 2.73331 429.353 2.77094C429.058 2.80857 428.764 2.85475 428.471 2.90948C428.179 2.96593 427.887 3.02921 427.599 3.10276C427.31 3.17631 427.024 3.25841 426.74 3.34906C426.457 3.43972 426.175 3.53892 425.897 3.64668C425.619 3.75444 425.346 3.87075 425.074 3.99561C424.803 4.12047 424.537 4.25217 424.274 4.39414C424.011 4.53439 423.753 4.6832 423.498 4.84056C423.246 4.99792 422.996 5.16212 422.752 5.33487C422.508 5.50592 422.27 5.68551 422.036 5.87195C421.804 6.05838 421.576 6.25337 421.354 6.45349C421.134 6.65361 420.918 6.86058 420.709 7.07438C420.499 7.28818 420.297 7.50883 420.102 7.7346C419.905 7.96038 419.717 8.193 419.536 8.43075C419.354 8.6685 419.179 8.91138 419.013 9.1611C418.845 9.40911 418.686 9.66226 418.533 9.92053C418.382 10.1788 418.238 10.4405 418.102 10.709C417.966 10.9759 417.837 11.2461 417.719 11.5215C417.598 11.7952 417.488 12.074 417.384 12.3562C417.281 12.6384 417.188 12.9223 417.101 13.2097C417.015 13.497 416.938 13.7861 416.87 14.0786C416.801 14.3711 416.742 14.6653 416.692 14.9612C416.641 15.2571 416.599 15.5547 416.567 15.8523C416.535 16.1516 416.511 16.4492 416.496 16.7503C416.48 17.0496 416.475 17.3489 416.479 17.65C416.482 17.9493 416.494 18.2503 416.516 18.5496C416.538 18.849 416.567 19.1466 416.608 19.4442C416.647 19.7418 416.694 20.0377 416.752 20.3336C416.809 20.6278 416.876 20.9203 416.95 21.2111C417.025 21.5018 417.108 21.7892 417.201 22.0748C417.293 22.3605 417.395 22.6427 417.503 22.9215C417.612 23.2003 417.731 23.4757 417.856 23.7494C417.982 24.0213 418.116 24.2881 418.258 24.5533C418.399 24.8167 418.55 25.0749 418.708 25.3298C418.865 25.5846 419.03 25.8344 419.203 26.079C419.376 26.3235 419.556 26.563 419.743 26.7956L404.6 46.2825C404.027 45.9353 403.443 45.6121 402.846 45.3093C402.251 45.0066 401.643 44.7261 401.026 44.4695C400.41 44.2129 399.784 43.9803 399.15 43.7716C398.515 43.5613 397.872 43.3765 397.224 43.2157C396.576 43.055 395.923 42.9198 395.265 42.8087C394.607 42.6975 393.945 42.6103 393.28 42.5504C392.615 42.4888 391.948 42.4529 391.282 42.4426C390.613 42.4307 389.946 42.4461 389.28 42.4854C388.613 42.5264 387.95 42.5914 387.288 42.6804C386.627 42.771 385.968 42.8856 385.315 43.0259C384.662 43.1661 384.016 43.3303 383.374 43.5202C382.735 43.7083 382.1 43.9222 381.476 44.1582C380.852 44.3959 380.236 44.6559 379.63 44.9399C379.025 45.2221 378.431 45.5282 377.848 45.8566C377.266 46.185 376.696 46.5357 376.139 46.9068C375.583 47.2797 375.04 47.6714 374.512 48.0836L349.901 23.1114C350.06 22.8565 350.211 22.5965 350.355 22.3331C350.499 22.068 350.633 21.7995 350.761 21.5275C350.888 21.2555 351.008 20.9802 351.119 20.6997C351.229 20.4209 351.331 20.1369 351.424 19.8513C351.519 19.5656 351.604 19.2766 351.68 18.9858C351.756 18.695 351.823 18.4008 351.882 18.1066C351.94 17.8107 351.991 17.5148 352.031 17.2155C352.072 16.9179 352.103 16.6186 352.126 16.3175C352.148 16.0182 352.162 15.7172 352.167 15.4161C352.17 15.1151 352.167 14.8141 352.153 14.513C352.14 14.212 352.116 13.9127 352.086 13.6133C352.053 13.314 352.013 13.0164 351.963 12.7188C351.914 12.4212 351.855 12.127 351.787 11.8328C351.721 11.5403 351.644 11.2495 351.56 10.9605C351.473 10.6714 351.38 10.3858 351.278 10.1035C351.176 9.81962 351.066 9.54082 350.947 9.26544C350.827 8.98835 350.7 8.71639 350.566 8.44785C350.43 8.17932 350.286 7.91591 350.135 7.65592C349.984 7.39594 349.824 7.14109 349.658 6.89136C349.492 6.64164 349.317 6.39705 349.135 6.15759C348.954 5.91984 348.766 5.68551 348.571 5.45802C348.375 5.23054 348.172 5.00989 347.963 4.79438C347.755 4.57886 347.539 4.37019 347.319 4.16836C347.096 3.96653 346.869 3.77154 346.637 3.58339C346.404 3.39525 346.165 3.21394 345.921 3.03948C345.676 2.86672 345.427 2.70081 345.174 2.54174C344.92 2.38438 344.66 2.23386 344.397 2.0919C344.134 1.94822 343.868 1.81481 343.597 1.68824C343.325 1.56338 343.05 1.44536 342.772 1.33589C342.494 1.22642 342.212 1.12551 341.929 1.03314C341.644 0.942491 341.357 0.85868 341.067 0.783421C340.779 0.709873 340.487 0.644876 340.194 0.588432C339.9 0.530278 339.605 0.484096 339.31 0.444756C339.013 0.407127 338.716 0.376339 338.419 0.357524C338.121 0.336999 337.822 0.325026 337.523 0.323316C337.225 0.321605 336.926 0.328447 336.628 0.343841C336.331 0.360945 336.032 0.386601 335.735 0.42081C335.439 0.455018 335.143 0.49778 334.85 0.550803C334.556 0.603826 334.263 0.665401 333.973 0.735529C333.683 0.805656 333.394 0.884336 333.109 0.973279C332.824 1.06051 332.541 1.15801 332.261 1.26234C331.981 1.36839 331.705 1.48299 331.433 1.60443C331.16 1.72758 330.89 1.85757 330.626 1.99612C330.361 2.13466 330.1 2.28176 329.844 2.43741C329.588 2.59134 329.336 2.75384 329.09 2.92317C328.844 3.09421 328.602 3.2721 328.368 3.45682C328.132 3.64155 327.901 3.83312 327.677 4.03324C327.453 4.23165 327.235 4.4369 327.024 4.64899C326.812 4.86108 326.607 5.08002 326.408 5.3058C326.21 5.52986 326.018 5.76077 325.833 5.99681C325.648 6.23456 325.472 6.47573 325.301 6.72374C325.131 6.97175 324.968 7.22319 324.814 7.48146C324.659 7.73802 324.512 8.00143 324.373 8.26655C324.234 8.53337 324.103 8.80362 323.981 9.079C323.857 9.35267 323.743 9.63147 323.638 9.91198C323.531 10.1942 323.435 10.4781 323.345 10.7655C323.256 11.0528 323.177 11.3436 323.105 11.6361C323.033 11.9286 322.971 12.2228 322.917 12.5187C322.863 12.8146 322.819 13.1122 322.783 13.4115C322.748 13.7108 322.72 14.0102 322.703 14.3112C322.685 14.6105 322.676 14.9116 322.676 15.2126C322.678 15.5136 322.686 15.8147 322.705 16.1157C322.724 16.415 322.753 16.7161 322.788 17.0137C322.826 17.313 322.871 17.6106 322.926 17.9065C322.98 18.2024 323.043 18.4966 323.116 18.7891C323.189 19.0816 323.268 19.3707 323.358 19.658C323.448 19.9454 323.547 20.2293 323.653 20.5098C323.76 20.792 323.876 21.0691 323.999 21.3428C324.123 21.6164 324.254 21.8867 324.395 22.1535C324.534 22.4186 324.681 22.6803 324.838 22.9386C324.994 23.1952 325.156 23.4466 325.328 23.6929C325.497 23.9409 325.676 24.1821 325.862 24.4181C326.047 24.6542 326.239 24.8851 326.439 25.1091C326.637 25.3332 326.843 25.5504 327.056 25.7625C327.269 25.9746 327.487 26.1799 327.711 26.3783C327.937 26.5767 328.166 26.7665 328.403 26.9513C328.639 27.136 328.88 27.3122 329.128 27.4815C329.374 27.6508 329.627 27.8133 329.883 27.9673C330.139 28.1212 330.4 28.2666 330.666 28.4051C330.931 28.542 331.201 28.672 331.474 28.7934C331.747 28.9148 332.024 29.0277 332.304 29.1321C332.583 29.2381 332.867 29.3339 333.153 29.4211C333.438 29.5084 333.727 29.5853 334.017 29.6555C334.309 29.7256 334.6 29.7855 334.894 29.8368C335.189 29.8881 335.484 29.9308 335.781 29.9651C336.078 29.9975 336.375 30.0232 336.674 30.0386C336.972 30.054 337.271 30.0591 337.569 30.0557C337.868 30.054 338.166 30.042 338.463 30.0198C338.762 29.9993 339.059 29.9685 339.354 29.9291C339.651 29.8898 339.946 29.8419 340.238 29.7837C340.531 29.7256 340.823 29.6606 341.111 29.5853C341.401 29.5084 341.688 29.4246 341.971 29.3322C342.255 29.2398 342.536 29.1372 342.815 29.0277C343.093 28.9183 343.368 28.7985 343.637 28.672C343.909 28.5454 344.175 28.4103 344.438 28.2666C344.701 28.1229 344.959 27.9724 345.212 27.8133L369.823 52.7788C369.192 53.5895 368.61 54.4344 368.076 55.3136C367.542 56.1911 367.058 57.0976 366.626 58.0332C366.195 58.9671 365.818 59.9232 365.496 60.9016C365.174 61.8799 364.907 62.8737 364.697 63.8811C364.488 64.8903 364.337 65.908 364.244 66.9343C364.149 67.9605 364.115 68.9902 364.139 70.0199C364.162 71.0513 364.244 72.0758 364.385 73.0969C364.524 74.1181 364.722 75.1272 364.978 76.1261L343.955 84.5483C343.79 84.3088 343.617 84.0745 343.439 83.8453C343.259 83.6161 343.074 83.392 342.882 83.1748C342.691 82.9558 342.492 82.7438 342.287 82.5385C342.082 82.3315 341.871 82.1314 341.656 81.9381C341.439 81.7449 341.218 81.5567 340.991 81.3771C340.764 81.1958 340.531 81.0231 340.294 80.8572C340.056 80.6895 339.814 80.5305 339.568 80.3782C339.32 80.226 339.069 80.0823 338.814 79.9438C338.558 79.8069 338.3 79.677 338.037 79.5555C337.774 79.4341 337.508 79.3212 337.238 79.2151C336.969 79.1091 336.697 79.0116 336.421 78.9209C336.146 78.832 335.868 78.7499 335.588 78.6781C335.308 78.6045 335.026 78.5395 334.743 78.4831C334.458 78.4266 334.173 78.3804 333.886 78.3411C333.6 78.3018 333.313 78.271 333.024 78.2487C332.736 78.2265 332.448 78.2128 332.158 78.2077C331.869 78.2026 331.579 78.2077 331.291 78.2197C331.001 78.2316 330.712 78.2522 330.426 78.283C330.137 78.312 329.85 78.3497 329.565 78.3976C329.28 78.4437 328.995 78.4985 328.714 78.5618C328.432 78.6268 328.151 78.6986 327.872 78.779C327.596 78.8594 327.319 78.9466 327.046 79.0441C326.773 79.1399 326.503 79.2459 326.237 79.3588C325.971 79.4717 325.708 79.5914 325.448 79.7197C325.189 79.848 324.933 79.9848 324.681 80.1285C324.429 80.2722 324.183 80.4244 323.938 80.5818C323.696 80.7408 323.458 80.9068 323.226 81.0795C322.992 81.2523 322.764 81.4319 322.542 81.6183C322.32 81.8047 322.103 81.9963 321.891 82.1964C321.68 82.3948 321.475 82.6001 321.275 82.8122C321.077 83.0243 320.883 83.2415 320.697 83.4638C320.51 83.6862 320.332 83.9154 320.159 84.148C319.986 84.3823 319.819 84.6201 319.66 84.8647C319.501 85.1076 319.35 85.3556 319.204 85.6087C319.059 85.8619 318.924 86.1184 318.793 86.3784C318.664 86.6401 318.542 86.9035 318.428 87.1721C318.315 87.4406 318.208 87.7108 318.111 87.9862C318.013 88.2599 317.923 88.537 317.841 88.8175C317.76 89.0963 317.685 89.3785 317.621 89.6624C317.555 89.9481 317.499 90.2337 317.45 90.5211C317.402 90.8084 317.361 91.0975 317.331 91.3866C317.299 91.6773 317.275 91.9664 317.261 92.2589C317.246 92.5496 317.241 92.8404 317.243 93.1329C317.246 93.4237 317.258 93.7162 317.277 94.0069C317.297 94.2977 317.324 94.5885 317.361 94.8775C317.399 95.1666 317.443 95.454 317.497 95.7413C317.551 96.0269 317.612 96.3126 317.684 96.5948C317.753 96.8787 317.831 97.1592 317.919 97.4363C318.006 97.7151 318.101 97.9905 318.203 98.2625C318.306 98.5361 318.417 98.8047 318.535 99.0698C318.654 99.3366 318.781 99.5983 318.915 99.8566C319.049 100.115 319.19 100.37 319.339 100.619C319.489 100.869 319.645 101.115 319.809 101.355C319.972 101.596 320.142 101.832 320.32 102.061C320.496 102.292 320.681 102.518 320.871 102.737C321.061 102.956 321.258 103.17 321.462 103.378C321.664 103.585 321.872 103.787 322.088 103.982C322.303 104.179 322.524 104.367 322.749 104.548C322.975 104.731 323.206 104.906 323.441 105.075C323.677 105.243 323.918 105.405 324.164 105.559C324.41 105.713 324.659 105.858 324.914 105.999C325.168 106.137 325.426 106.269 325.689 106.392C325.95 106.517 326.215 106.632 326.485 106.741C326.753 106.849 327.024 106.948 327.299 107.04C327.574 107.131 327.85 107.215 328.13 107.29C328.41 107.365 328.692 107.432 328.975 107.49C329.258 107.548 329.543 107.6 329.828 107.641C330.115 107.682 330.404 107.714 330.69 107.738C330.979 107.764 331.269 107.779 331.557 107.786C331.845 107.793 332.136 107.791 332.424 107.781C332.714 107.771 333.002 107.752 333.291 107.725C333.578 107.697 333.864 107.661 334.151 107.617C334.436 107.572 334.721 107.521 335.004 107.459C335.286 107.398 335.567 107.328 335.846 107.249C336.124 107.17 336.4 107.085 336.674 106.991C336.948 106.895 337.218 106.792 337.486 106.683C337.754 106.572 338.017 106.452 338.278 106.325C338.54 106.199 338.796 106.065 339.049 105.923C339.301 105.782 339.549 105.633 339.793 105.475C340.038 105.32 340.277 105.156 340.511 104.984C340.745 104.813 340.974 104.636 341.198 104.451C341.422 104.266 341.641 104.076 341.854 103.878C342.066 103.681 342.273 103.478 342.474 103.267C342.675 103.057 342.869 102.841 343.057 102.621C343.245 102.398 343.427 102.171 343.602 101.938C343.776 101.707 343.944 101.47 344.106 101.227C344.267 100.984 344.419 100.737 344.567 100.486C344.713 100.235 344.852 99.9797 344.983 99.7198C345.115 99.4598 345.239 99.1964 345.354 98.9295C345.469 98.661 345.578 98.3908 345.678 98.1171C345.778 97.8434 345.87 97.568 345.955 97.2892C346.038 97.0087 346.114 96.7282 346.182 96.4443C346.248 96.1604 346.308 95.8747 346.358 95.5891C346.409 95.3017 346.452 95.0127 346.486 94.7236C346.518 94.4328 346.543 94.1438 346.56 93.8513C346.577 93.5605 346.586 93.2697 346.586 92.9773C346.577 92.2315 346.513 91.4892 346.394 90.752L367.426 82.3298C367.657 82.7557 367.9 83.1748 368.152 83.5887C368.405 84.0009 368.67 84.4063 368.946 84.8048C369.221 85.2034 369.506 85.5933 369.803 85.9765C370.1 86.3596 370.405 86.7342 370.723 87.1002C371.038 87.4662 371.364 87.8237 371.7 88.1727C372.036 88.5199 372.38 88.8602 372.733 89.1887C373.087 89.5188 373.45 89.8386 373.82 90.1482C374.192 90.4578 374.57 90.7571 374.957 91.0462C375.344 91.3352 375.739 91.614 376.141 91.8809C376.543 92.1494 376.952 92.406 377.367 92.6506C377.783 92.8951 378.204 93.1295 378.633 93.3518C379.06 93.5742 379.495 93.7846 379.934 93.983C380.374 94.1814 380.818 94.3678 381.268 94.5423C381.717 94.7168 382.172 94.8792 382.63 95.0281C383.088 95.1769 383.549 95.3137 384.016 95.4386C384.481 95.5634 384.949 95.6746 385.42 95.7738C385.892 95.873 386.367 95.9585 386.842 96.0304C387.319 96.1039 387.797 96.1638 388.275 96.21C388.756 96.2579 389.236 96.2904 389.716 96.3109C390.198 96.3331 390.679 96.34 391.161 96.3348C391.643 96.328 392.123 96.3092 392.605 96.2784C393.085 96.2459 393.563 96.2014 394.042 96.1433C394.52 96.0851 394.997 96.0133 395.47 95.9295C395.945 95.8456 396.417 95.7481 396.887 95.6387C397.355 95.5292 397.821 95.4061 398.284 95.2709C398.746 95.1358 399.206 94.9887 399.66 94.8279C400.115 94.6689 400.564 94.4961 401.009 94.3114C401.455 94.1267 401.894 93.93 402.33 93.7213C402.765 93.5109 403.194 93.292 403.616 93.0594C404.039 92.8267 404.456 92.5839 404.867 92.329C405.275 92.0724 405.679 91.8073 406.074 91.5302C406.47 91.2531 406.858 90.9658 407.238 90.6682L441.452 125.222C441.104 125.78 440.795 126.358 440.525 126.957C440.254 127.555 440.025 128.171 439.835 128.8C439.647 129.43 439.499 130.07 439.396 130.72C439.29 131.37 439.229 132.023 439.212 132.681C439.194 133.34 439.219 133.995 439.289 134.65C439.358 135.305 439.47 135.952 439.625 136.591C439.779 137.229 439.976 137.857 440.213 138.47C440.451 139.082 440.727 139.677 441.045 140.252C441.36 140.828 441.713 141.381 442.103 141.909C442.492 142.438 442.914 142.937 443.37 143.408C443.825 143.88 444.31 144.317 444.824 144.725C445.338 145.13 445.876 145.501 446.438 145.835C447.001 146.168 447.583 146.462 448.185 146.719C448.787 146.974 449.403 147.188 450.032 147.36C450.662 147.533 451.301 147.661 451.948 147.749C452.596 147.836 453.245 147.879 453.898 147.877V147.868ZM331.89 101.174C331.625 101.174 331.36 101.162 331.097 101.134C330.834 101.109 330.573 101.069 330.315 101.018C330.056 100.967 329.8 100.902 329.547 100.825C329.294 100.748 329.045 100.657 328.8 100.556C328.556 100.454 328.319 100.341 328.084 100.214C327.852 100.089 327.625 99.9524 327.406 99.8053C327.185 99.6565 326.973 99.4991 326.768 99.3298C326.564 99.1605 326.369 98.9826 326.181 98.7944C325.994 98.6063 325.816 98.4096 325.648 98.2026C325.48 97.9974 325.324 97.7836 325.177 97.5629C325.029 97.3406 324.894 97.1131 324.768 96.8787C324.644 96.6427 324.53 96.4032 324.429 96.1569C324.327 95.9106 324.239 95.6609 324.161 95.4061C324.084 95.1512 324.02 94.8929 323.967 94.6312C323.915 94.3695 323.876 94.1061 323.85 93.841C323.823 93.5759 323.809 93.3108 323.809 93.044C323.809 92.7771 323.821 92.512 323.847 92.2469C323.872 91.9818 323.91 91.7184 323.96 91.4567C324.011 91.195 324.076 90.9367 324.152 90.6819C324.229 90.427 324.317 90.1756 324.417 89.9293C324.517 89.683 324.629 89.4418 324.753 89.2075C324.877 88.9714 325.012 88.7422 325.158 88.5199C325.304 88.2992 325.462 88.0837 325.628 87.8785C325.796 87.6715 325.972 87.4731 326.159 87.2849C326.344 87.0951 326.539 86.9172 326.744 86.7462C326.948 86.5768 327.158 86.4178 327.379 86.2689C327.598 86.1201 327.823 85.9833 328.056 85.8567C328.288 85.7302 328.527 85.6156 328.77 85.5129C329.014 85.4103 329.262 85.3197 329.515 85.241C329.767 85.1623 330.024 85.0973 330.283 85.0443C330.541 84.9913 330.802 84.9502 331.065 84.9228C331.328 84.8972 331.593 84.8818 331.856 84.8818C332.12 84.8801 332.385 84.8921 332.648 84.9177C332.911 84.9417 333.172 84.9793 333.432 85.0306C333.691 85.0819 333.947 85.1452 334.2 85.2222C334.453 85.2974 334.702 85.3864 334.947 85.4873C335.191 85.5882 335.43 85.7011 335.664 85.8242C335.898 85.9491 336.126 86.0859 336.346 86.2313C336.567 86.3784 336.779 86.5358 336.984 86.7051C337.189 86.8727 337.386 87.0506 337.573 87.2371C337.761 87.4252 337.939 87.6219 338.109 87.8271C338.277 88.0324 338.434 88.2445 338.584 88.4651C338.731 88.6858 338.869 88.9133 338.994 89.1476C339.12 89.3819 339.233 89.6214 339.337 89.8677C339.439 90.114 339.529 90.3637 339.608 90.6186C339.686 90.8717 339.751 91.13 339.805 91.3917C339.858 91.6517 339.898 91.9151 339.926 92.1802C339.953 92.4453 339.968 92.7104 339.97 92.9773C339.97 93.2441 339.958 93.5109 339.932 93.7777C339.907 94.0428 339.868 94.308 339.817 94.5697C339.766 94.8314 339.702 95.0913 339.625 95.3479C339.549 95.6028 339.459 95.8542 339.359 96.1022C339.257 96.3485 339.145 96.5897 339.02 96.8257C338.896 97.0618 338.76 97.291 338.613 97.5133C338.467 97.7357 338.309 97.9512 338.141 98.1581C337.973 98.3651 337.797 98.5618 337.608 98.7517C337.422 98.9415 337.225 99.1211 337.021 99.2904C336.816 99.4598 336.604 99.6206 336.383 99.7694C336.163 99.9165 335.937 100.055 335.703 100.182C335.469 100.308 335.23 100.423 334.986 100.524C334.741 100.626 334.492 100.717 334.237 100.796C333.985 100.873 333.729 100.938 333.467 100.991C333.208 101.044 332.946 101.083 332.682 101.109C332.419 101.136 332.154 101.15 331.89 101.15V101.174ZM461.977 133.077C461.979 133.343 461.965 133.61 461.939 133.875C461.914 134.14 461.875 134.406 461.824 134.667C461.773 134.929 461.709 135.187 461.632 135.442C461.556 135.699 461.466 135.948 461.366 136.196C461.264 136.443 461.152 136.684 461.027 136.918C460.903 137.154 460.767 137.383 460.62 137.606C460.474 137.826 460.316 138.042 460.148 138.247C459.98 138.454 459.804 138.653 459.615 138.841C459.429 139.029 459.234 139.208 459.028 139.378C458.825 139.547 458.613 139.706 458.392 139.855C458.172 140.004 457.946 140.141 457.712 140.267C457.48 140.392 457.24 140.507 456.996 140.609C456.75 140.712 456.502 140.801 456.25 140.88C455.995 140.956 455.739 141.021 455.479 141.075C455.22 141.126 454.959 141.165 454.696 141.193C454.431 141.218 454.168 141.232 453.904 141.232C453.639 141.232 453.374 141.218 453.111 141.193C452.848 141.167 452.585 141.128 452.326 141.076C452.066 141.025 451.81 140.96 451.557 140.883C451.303 140.804 451.055 140.715 450.811 140.613C450.565 140.512 450.326 140.397 450.093 140.272C449.859 140.146 449.632 140.009 449.413 139.862C449.193 139.713 448.98 139.554 448.775 139.385C448.57 139.215 448.375 139.037 448.187 138.849C448 138.659 447.822 138.463 447.654 138.256C447.486 138.05 447.328 137.837 447.182 137.614C447.035 137.392 446.899 137.164 446.773 136.928C446.648 136.694 446.536 136.453 446.434 136.207C446.332 135.959 446.244 135.709 446.166 135.452C446.09 135.197 446.025 134.939 445.974 134.678C445.922 134.416 445.883 134.152 445.857 133.887C445.83 133.62 445.818 133.355 445.818 133.089C445.818 132.822 445.83 132.555 445.856 132.29C445.883 132.023 445.922 131.76 445.973 131.498C446.024 131.236 446.088 130.978 446.164 130.723C446.242 130.466 446.331 130.217 446.432 129.969C446.533 129.722 446.646 129.481 446.772 129.247C446.896 129.011 447.031 128.782 447.179 128.561C447.325 128.339 447.483 128.125 447.65 127.918C447.818 127.713 447.997 127.514 448.183 127.326C448.37 127.136 448.567 126.958 448.77 126.789C448.975 126.62 449.187 126.461 449.408 126.312C449.629 126.163 449.854 126.026 450.088 125.901C450.321 125.775 450.56 125.662 450.806 125.559C451.05 125.457 451.298 125.368 451.552 125.289C451.805 125.212 452.061 125.147 452.321 125.096C452.58 125.043 452.842 125.003 453.106 124.978C453.369 124.952 453.634 124.938 453.898 124.938C454.161 124.938 454.424 124.952 454.687 124.978C454.95 125.005 455.21 125.044 455.469 125.096C455.729 125.147 455.983 125.212 456.236 125.289C456.489 125.366 456.737 125.457 456.981 125.558C457.225 125.66 457.463 125.773 457.695 125.898C457.929 126.023 458.155 126.16 458.374 126.307C458.594 126.454 458.806 126.613 459.01 126.78C459.215 126.95 459.41 127.128 459.597 127.316C459.783 127.502 459.961 127.699 460.129 127.904C460.297 128.109 460.455 128.323 460.601 128.544C460.749 128.765 460.886 128.992 461.01 129.226C461.135 129.461 461.249 129.7 461.351 129.946C461.453 130.191 461.543 130.441 461.621 130.696C461.697 130.949 461.763 131.207 461.816 131.467C461.868 131.729 461.907 131.99 461.934 132.256C461.962 132.521 461.977 132.786 461.977 133.051V133.077ZM431.131 9.34412C431.395 9.34412 431.658 9.3578 431.923 9.38346C432.186 9.40911 432.447 9.44845 432.707 9.50148C432.966 9.55279 433.222 9.61779 433.475 9.69476C433.73 9.77173 433.977 9.86238 434.222 9.965C434.466 10.0659 434.705 10.1805 434.939 10.3054C435.172 10.432 435.399 10.5688 435.619 10.7176C435.838 10.8647 436.052 11.0238 436.256 11.1931C436.461 11.3624 436.656 11.542 436.844 11.7302C437.031 11.9183 437.207 12.1167 437.375 12.322C437.543 12.5289 437.701 12.7427 437.849 12.9651C437.996 13.1857 438.132 13.4149 438.256 13.651C438.381 13.8853 438.493 14.1265 438.595 14.3728C438.697 14.6191 438.785 14.8705 438.861 15.1254C438.939 15.3819 439.004 15.6402 439.055 15.9019C439.106 16.1636 439.145 16.427 439.172 16.6921C439.197 16.9572 439.211 17.2241 439.211 17.4909C439.211 17.7577 439.197 18.0228 439.172 18.2897C439.145 18.5548 439.106 18.8182 439.055 19.0799C439.004 19.3416 438.939 19.5999 438.861 19.8547C438.785 20.1113 438.697 20.361 438.595 20.609C438.493 20.8553 438.381 21.0948 438.256 21.3308C438.132 21.5668 437.996 21.7943 437.849 22.0167C437.701 22.239 437.543 22.4528 437.375 22.6581C437.207 22.8651 437.031 23.0618 436.844 23.2516C436.656 23.4398 436.461 23.6194 436.256 23.7887C436.052 23.958 435.838 24.1154 435.619 24.2642C435.399 24.413 435.172 24.5498 434.939 24.6747C434.705 24.8013 434.466 24.9142 434.222 25.0168C433.977 25.1194 433.73 25.2083 433.475 25.287C433.222 25.364 432.966 25.429 432.707 25.4803C432.447 25.5333 432.186 25.5727 431.923 25.5983C431.658 25.624 431.395 25.6377 431.131 25.6377C430.866 25.6377 430.601 25.624 430.338 25.5983C430.075 25.5727 429.813 25.5333 429.553 25.4803C429.293 25.429 429.037 25.364 428.784 25.287C428.532 25.2083 428.282 25.1194 428.038 25.0168C427.794 24.9142 427.555 24.8013 427.32 24.6747C427.088 24.5498 426.861 24.413 426.642 24.2642C426.421 24.1154 426.209 23.958 426.004 23.7887C425.8 23.6194 425.604 23.4398 425.417 23.2516C425.23 23.0618 425.052 22.8651 424.884 22.6581C424.716 22.4528 424.559 22.239 424.411 22.0167C424.265 21.7943 424.129 21.5668 424.004 21.3308C423.88 21.0948 423.766 20.8553 423.665 20.609C423.565 20.361 423.475 20.1113 423.398 19.8547C423.322 19.5999 423.258 19.3416 423.205 19.0799C423.154 18.8182 423.115 18.5548 423.09 18.2897C423.062 18.0228 423.051 17.7577 423.051 17.4909C423.051 17.2241 423.064 16.9572 423.091 16.6921C423.117 16.427 423.156 16.1636 423.208 15.9019C423.261 15.6402 423.325 15.3819 423.402 15.1271C423.48 14.8722 423.568 14.6225 423.67 14.3762C423.772 14.1299 423.884 13.8887 424.009 13.6544C424.135 13.4184 424.27 13.1909 424.416 12.9685C424.564 12.7462 424.722 12.5324 424.889 12.3271C425.057 12.1201 425.234 11.9234 425.422 11.7353C425.609 11.5472 425.804 11.3676 426.009 11.1982C426.213 11.0289 426.425 10.8698 426.645 10.7227C426.864 10.5739 427.091 10.4371 427.324 10.3105C427.558 10.1856 427.797 10.0711 428.041 9.96842C428.284 9.8658 428.533 9.77686 428.786 9.69818C429.039 9.62121 429.295 9.55621 429.555 9.50319C429.814 9.45016 430.075 9.41082 430.338 9.38517C430.601 9.3578 430.866 9.34412 431.131 9.34412ZM329.408 15.24C329.408 14.9731 329.421 14.7063 329.447 14.4412C329.472 14.1761 329.511 13.911 329.564 13.6493C329.615 13.3876 329.679 13.1293 329.755 12.8744C329.834 12.6196 329.922 12.3682 330.024 12.1219C330.124 11.8756 330.237 11.6344 330.363 11.3983C330.487 11.164 330.622 10.9348 330.77 10.7142C330.918 10.4918 331.074 10.278 331.242 10.0711C331.409 9.8658 331.588 9.66739 331.774 9.47924C331.961 9.28938 332.158 9.1115 332.363 8.94217C332.566 8.77283 332.779 8.61376 332.999 8.46496C333.22 8.31786 333.445 8.18103 333.679 8.05445C333.912 7.92959 334.151 7.81499 334.395 7.71237C334.639 7.61145 334.889 7.5208 335.142 7.44383C335.396 7.36686 335.652 7.30187 335.912 7.24884C336.171 7.19753 336.433 7.15819 336.696 7.13253C336.959 7.10517 337.223 7.09319 337.488 7.09319C337.752 7.09319 338.017 7.10517 338.28 7.13253C338.543 7.15819 338.804 7.19753 339.064 7.24884C339.323 7.30187 339.579 7.36686 339.834 7.44383C340.087 7.5208 340.336 7.61145 340.58 7.71237C340.825 7.81499 341.064 7.92959 341.296 8.05445C341.53 8.18103 341.756 8.31786 341.977 8.46496C342.197 8.61376 342.409 8.77283 342.614 8.94217C342.818 9.1115 343.015 9.28938 343.201 9.47924C343.388 9.66739 343.566 9.8658 343.734 10.0711C343.902 10.278 344.06 10.4918 344.206 10.7142C344.353 10.9348 344.489 11.164 344.614 11.3983C344.738 11.6344 344.852 11.8756 344.952 12.1219C345.054 12.3682 345.144 12.6196 345.22 12.8744C345.296 13.1293 345.361 13.3876 345.412 13.6493C345.464 13.911 345.503 14.1761 345.529 14.4412C345.554 14.7063 345.568 14.9731 345.568 15.24C345.568 15.5068 345.554 15.7719 345.529 16.037C345.503 16.3039 345.464 16.5673 345.412 16.829C345.361 17.0907 345.296 17.3489 345.22 17.6038C345.144 17.8586 345.054 18.1101 344.952 18.3564C344.852 18.6027 344.738 18.8438 344.614 19.0799C344.489 19.3142 344.353 19.5434 344.206 19.7658C344.06 19.9864 343.902 20.2019 343.734 20.4072C343.566 20.6141 343.388 20.8108 343.201 20.999C343.015 21.1888 342.818 21.3667 342.614 21.5361C342.409 21.7054 342.197 21.8645 341.977 22.0133C341.756 22.1604 341.53 22.2989 341.296 22.4238C341.064 22.5503 340.825 22.6632 340.58 22.7659C340.336 22.8685 340.087 22.9574 339.834 23.0344C339.579 23.1131 339.323 23.1781 339.064 23.2294C338.804 23.2807 338.543 23.32 338.28 23.3474C338.017 23.3731 337.752 23.385 337.488 23.385C337.223 23.385 336.959 23.3731 336.696 23.3474C336.433 23.32 336.171 23.2807 335.912 23.2294C335.651 23.1781 335.394 23.1131 335.142 23.0344C334.889 22.9574 334.639 22.8685 334.395 22.7659C334.149 22.6632 333.912 22.5503 333.678 22.4238C333.444 22.2989 333.218 22.1621 332.997 22.0133C332.777 21.8645 332.565 21.7071 332.359 21.5378C332.154 21.3684 331.959 21.1888 331.771 21.0007C331.584 20.8108 331.406 20.6141 331.238 20.4072C331.07 20.2019 330.912 19.9881 330.767 19.7658C330.619 19.5434 330.483 19.3159 330.358 19.0799C330.232 18.8456 330.119 18.6044 330.018 18.3581C329.917 18.1118 329.827 17.8603 329.75 17.6055C329.672 17.3489 329.608 17.0907 329.557 16.829C329.504 16.5673 329.465 16.3039 329.44 16.0387C329.413 15.7719 329.399 15.5068 329.399 15.24H329.408ZM370.758 69.3802C370.758 68.7165 370.79 68.0529 370.853 67.3909C370.918 66.7307 371.014 66.0739 371.142 65.4222C371.27 64.7706 371.43 64.1274 371.62 63.4912C371.812 62.8549 372.032 62.2306 372.285 61.6165C372.536 61.0025 372.818 60.4021 373.126 59.8155C373.437 59.2288 373.776 58.6609 374.141 58.1067C374.507 57.5543 374.899 57.0223 375.316 56.5075C375.734 55.9944 376.177 55.5018 376.641 55.0314C377.108 54.5627 377.595 54.1163 378.104 53.6938C378.613 53.2731 379.142 52.8762 379.69 52.5068C380.236 52.1391 380.801 51.797 381.383 51.484C381.963 51.1692 382.559 50.8853 383.168 50.6322C383.775 50.3773 384.396 50.1532 385.025 49.96C385.656 49.7667 386.294 49.6059 386.94 49.4759C387.587 49.3459 388.238 49.2484 388.893 49.1834C389.549 49.1184 390.206 49.0842 390.866 49.0842C391.524 49.0842 392.182 49.1167 392.837 49.1817C393.494 49.2467 394.145 49.3442 394.791 49.4742C395.438 49.6025 396.076 49.7633 396.707 49.9565C397.338 50.1498 397.957 50.3739 398.566 50.627C399.175 50.8819 399.769 51.1658 400.351 51.4788C400.933 51.7918 401.496 52.1322 402.044 52.5017C402.592 52.8711 403.121 53.2662 403.63 53.687C404.14 54.1095 404.627 54.5542 405.094 55.0245C405.559 55.4932 406.001 55.9858 406.419 56.4989C406.838 57.0121 407.23 57.5457 407.596 58.0982C407.961 58.6507 408.3 59.2202 408.611 59.8052C408.921 60.3919 409.203 60.9922 409.454 61.6063C409.706 62.2203 409.929 62.8446 410.119 63.4809C410.31 64.1155 410.47 64.7603 410.599 65.412C410.728 66.0637 410.823 66.7187 410.887 67.3807C410.952 68.0426 410.984 68.7046 410.984 69.3682C410.984 70.0336 410.952 70.6955 410.887 71.3574C410.823 72.0194 410.724 72.6745 410.597 73.3261C410.468 73.9778 410.307 74.6209 410.115 75.2572C409.924 75.8935 409.703 76.5178 409.45 77.1318C409.198 77.7459 408.916 78.3445 408.605 78.9312C408.293 79.5162 407.956 80.0857 407.589 80.6382C407.223 81.1907 406.831 81.7226 406.412 82.2358C405.995 82.7489 405.552 83.2415 405.085 83.7101C404.619 84.1805 404.132 84.6252 403.621 85.046C403.112 85.4685 402.583 85.8636 402.035 86.2313C401.487 86.6008 400.922 86.9411 400.34 87.2542C399.76 87.5672 399.165 87.8494 398.556 88.1042C397.947 88.3574 397.326 88.5814 396.697 88.773C396.065 88.9663 395.426 89.1271 394.78 89.2554C394.133 89.3853 393.484 89.4811 392.827 89.5461C392.17 89.6111 391.514 89.6436 390.854 89.6419C390.196 89.6419 389.539 89.6077 388.884 89.5427C388.23 89.476 387.58 89.3785 386.935 89.2485C386.289 89.1185 385.651 88.9577 385.022 88.7645C384.392 88.5712 383.773 88.3471 383.166 88.094C382.557 87.8391 381.963 87.5552 381.383 87.2422C380.803 86.9292 380.239 86.5888 379.692 86.2211C379.144 85.8516 378.616 85.4565 378.107 85.0357C377.598 84.615 377.111 84.1703 376.646 83.7016C376.18 83.2329 375.739 82.742 375.322 82.2289C374.903 81.7158 374.511 81.1838 374.144 80.6331C373.779 80.0806 373.44 79.5128 373.13 78.9278C372.819 78.3428 372.538 77.7442 372.285 77.1318C372.032 76.5195 371.81 75.8952 371.618 75.2606C371.425 74.6261 371.265 73.9829 371.135 73.333C371.006 72.6813 370.907 72.0262 370.843 71.366C370.777 70.7058 370.743 70.0438 370.741 69.3802H370.758Z" fill="white"/>
</mask>
<g mask="url(#mask1_24_2)">
<path d="M317.241 0.321594V147.879H468.63V0.321594H317.241Z" fill="url(#paint0_linear_24_2)"/>
</g>
</g>
</g>
<g filter="url(#filter1_d_24_2)">
<path d="M4.1 111.95H11.5V95.1H24.1V111.95H33.8V122.5H24.1V137.35C24.1 139.317 24.4167 140.85 25.05 141.95C25.6833 143.017 26.6833 143.55 28.05 143.55C29.0833 143.55 29.9333 143.35 30.6 142.95C31.2667 142.517 31.6667 142.217 31.8 142.05L36.3 151.15C36.1 151.35 35.45 151.7 34.35 152.2C33.2833 152.7 31.9 153.15 30.2 153.55C28.5333 153.983 26.65 154.2 24.55 154.2C20.7833 154.2 17.6667 153.117 15.2 150.95C12.7333 148.75 11.5 145.35 11.5 140.75V122.5H4.1V111.95ZM52.1086 135.3C52.2086 137.167 52.7086 138.833 53.6086 140.3C54.5086 141.767 55.8086 142.917 57.5086 143.75C59.2419 144.583 61.3086 145 63.7086 145C65.8753 145 67.7753 144.733 69.4086 144.2C71.0753 143.667 72.4753 143.017 73.6086 142.25C74.7753 141.45 75.6419 140.683 76.2086 139.95L81.4586 147.75C80.5253 148.917 79.2753 150 77.7086 151C76.1753 151.967 74.2086 152.733 71.8086 153.3C69.4419 153.9 66.4753 154.2 62.9086 154.2C58.4086 154.2 54.4586 153.317 51.0586 151.55C47.6586 149.783 45.0086 147.233 43.1086 143.9C41.2086 140.567 40.2586 136.6 40.2586 132C40.2586 128 41.1086 124.4 42.8086 121.2C44.5086 117.967 46.9753 115.417 50.2086 113.55C53.4753 111.683 57.3919 110.75 61.9586 110.75C66.2586 110.75 69.9753 111.583 73.1086 113.25C76.2753 114.883 78.7253 117.283 80.4586 120.45C82.1919 123.617 83.0586 127.483 83.0586 132.05C83.0586 132.317 83.0419 132.867 83.0086 133.7C83.0086 134.5 82.9753 135.033 82.9086 135.3H52.1086ZM71.1586 127.45C71.1253 126.383 70.7919 125.233 70.1586 124C69.5586 122.767 68.6086 121.717 67.3086 120.85C66.0086 119.983 64.2753 119.55 62.1086 119.55C59.9419 119.55 58.1586 119.967 56.7586 120.8C55.3919 121.633 54.3586 122.667 53.6586 123.9C52.9586 125.1 52.5586 126.283 52.4586 127.45H71.1586ZM112.734 144.1C114.901 144.1 116.668 143.733 118.034 143C119.401 142.267 120.301 141.717 120.734 141.35L126.634 150.1C126.168 150.467 125.301 150.983 124.034 151.65C122.768 152.317 121.151 152.9 119.184 153.4C117.251 153.933 115.034 154.2 112.534 154.2C108.201 154.2 104.318 153.333 100.884 151.6C97.451 149.833 94.7344 147.333 92.7344 144.1C90.7677 140.833 89.7844 136.95 89.7844 132.45C89.7844 127.917 90.7677 124.033 92.7344 120.8C94.7344 117.567 97.451 115.083 100.884 113.35C104.318 111.617 108.201 110.75 112.534 110.75C115.001 110.75 117.184 111.017 119.084 111.55C121.018 112.083 122.634 112.7 123.934 113.4C125.234 114.067 126.134 114.617 126.634 115.05L120.584 123.85C120.351 123.583 119.901 123.217 119.234 122.75C118.568 122.283 117.684 121.85 116.584 121.45C115.518 121.05 114.234 120.85 112.734 120.85C110.901 120.85 109.151 121.333 107.484 122.3C105.851 123.267 104.518 124.617 103.484 126.35C102.451 128.083 101.934 130.117 101.934 132.45C101.934 134.783 102.451 136.833 103.484 138.6C104.518 140.333 105.851 141.683 107.484 142.65C109.151 143.617 110.901 144.1 112.734 144.1ZM160.322 110.75C163.122 110.75 165.855 111.333 168.522 112.5C171.189 113.633 173.372 115.45 175.072 117.95C176.805 120.45 177.672 123.717 177.672 127.75V153H164.922V129.95C164.922 126.583 164.155 124.083 162.622 122.45C161.122 120.817 159.105 120 156.572 120C154.872 120 153.239 120.467 151.672 121.4C150.139 122.3 148.872 123.567 147.872 125.2C146.905 126.8 146.422 128.633 146.422 130.7V153H133.672V84.2H146.422V118.5C146.755 117.367 147.572 116.2 148.872 115C150.172 113.8 151.822 112.8 153.822 112C155.822 111.167 157.989 110.75 160.322 110.75Z" fill="url(#paint1_linear_24_2)"/>
<path d="M197.628 154.2C195.795 154.2 194.211 153.55 192.878 152.25C191.578 150.917 190.928 149.333 190.928 147.5C190.928 145.6 191.578 144 192.878 142.7C194.211 141.367 195.795 140.7 197.628 140.7C199.528 140.7 201.128 141.367 202.428 142.7C203.728 144 204.378 145.6 204.378 147.5C204.378 149.333 203.728 150.917 202.428 152.25C201.128 153.55 199.528 154.2 197.628 154.2Z" fill="url(#paint2_linear_24_2)"/>
<path d="M215.335 111.95H223.235V100.55C223.235 96.45 224.002 93.1167 225.535 90.55C227.068 87.95 229.018 86.05 231.385 84.85C233.785 83.6167 236.252 83 238.785 83C241.885 83 244.252 83.4333 245.885 84.3C247.552 85.1333 248.568 85.7167 248.935 86.05L244.735 94.05C244.535 93.85 244.035 93.5 243.235 93C242.435 92.4667 241.352 92.2 239.985 92.2C238.985 92.2 238.018 92.4333 237.085 92.9C236.185 93.3667 235.418 94.2833 234.785 95.65C234.152 97.0167 233.835 99.0167 233.835 101.65V111.95H245.085V120.95H233.835V153H223.235V120.95H215.335V111.95ZM272.031 154.2C267.731 154.2 263.898 153.267 260.531 151.4C257.198 149.5 254.581 146.933 252.681 143.7C250.781 140.433 249.831 136.733 249.831 132.6C249.831 128.467 250.781 124.75 252.681 121.45C254.581 118.15 257.198 115.55 260.531 113.65C263.898 111.717 267.731 110.75 272.031 110.75C276.331 110.75 280.131 111.717 283.431 113.65C286.731 115.55 289.315 118.15 291.181 121.45C293.081 124.75 294.031 128.467 294.031 132.6C294.031 136.733 293.081 140.433 291.181 143.7C289.315 146.933 286.731 149.5 283.431 151.4C280.131 153.267 276.331 154.2 272.031 154.2ZM272.031 145.2C274.431 145.2 276.515 144.65 278.281 143.55C280.048 142.45 281.415 140.95 282.381 139.05C283.348 137.15 283.831 134.983 283.831 132.55C283.831 130.117 283.348 127.95 282.381 126.05C281.415 124.117 280.048 122.583 278.281 121.45C276.515 120.317 274.431 119.75 272.031 119.75C269.631 119.75 267.531 120.317 265.731 121.45C263.965 122.583 262.581 124.117 261.581 126.05C260.615 127.95 260.131 130.117 260.131 132.55C260.131 134.983 260.615 137.15 261.581 139.05C262.581 140.95 263.965 142.45 265.731 143.55C267.531 144.65 269.631 145.2 272.031 145.2ZM313.967 153H303.217V84.2H313.967V153ZM326.426 153V111.95H337.076V153H326.426ZM331.876 99.65C330.076 99.65 328.526 99 327.226 97.7C325.959 96.4 325.326 94.85 325.326 93.05C325.326 91.25 325.959 89.7 327.226 88.4C328.526 87.0667 330.076 86.4 331.876 86.4C333.076 86.4 334.176 86.7167 335.176 87.35C336.209 87.95 337.026 88.75 337.626 89.75C338.259 90.7167 338.576 91.8167 338.576 93.05C338.576 94.85 337.926 96.4 336.626 97.7C335.326 99 333.742 99.65 331.876 99.65ZM369.102 154.2C364.802 154.2 360.968 153.267 357.602 151.4C354.268 149.5 351.652 146.933 349.752 143.7C347.852 140.433 346.902 136.733 346.902 132.6C346.902 128.467 347.852 124.75 349.752 121.45C351.652 118.15 354.268 115.55 357.602 113.65C360.968 111.717 364.802 110.75 369.102 110.75C373.402 110.75 377.202 111.717 380.502 113.65C383.802 115.55 386.385 118.15 388.252 121.45C390.152 124.75 391.102 128.467 391.102 132.6C391.102 136.733 390.152 140.433 388.252 143.7C386.385 146.933 383.802 149.5 380.502 151.4C377.202 153.267 373.402 154.2 369.102 154.2ZM369.102 145.2C371.502 145.2 373.585 144.65 375.352 143.55C377.118 142.45 378.485 140.95 379.452 139.05C380.418 137.15 380.902 134.983 380.902 132.55C380.902 130.117 380.418 127.95 379.452 126.05C378.485 124.117 377.118 122.583 375.352 121.45C373.585 120.317 371.502 119.75 369.102 119.75C366.702 119.75 364.602 120.317 362.802 121.45C361.035 122.583 359.652 124.117 358.652 126.05C357.685 127.95 357.202 130.117 357.202 132.55C357.202 134.983 357.685 137.15 358.652 139.05C359.652 140.95 361.035 142.45 362.802 143.55C364.602 144.65 366.702 145.2 369.102 145.2Z" fill="url(#paint3_linear_24_2)"/>
</g>
<defs>
<filter id="filter0_i_24_2" x="317.242" y="0.323059" width="151.387" height="151.554" filterUnits="userSpaceOnUse" color-interpolation-filters="sRGB">
<feFlood flood-opacity="0" result="BackgroundImageFix"/>
<feBlend mode="normal" in="SourceGraphic" in2="BackgroundImageFix" result="shape"/>
<feColorMatrix in="SourceAlpha" type="matrix" values="0 0 0 0 0 0 0 0 0 0 0 0 0 0 0 0 0 0 127 0" result="hardAlpha"/>
<feOffset dy="4"/>
<feGaussianBlur stdDeviation="2"/>
<feComposite in2="hardAlpha" operator="arithmetic" k2="-1" k3="1"/>
<feColorMatrix type="matrix" values="0 0 0 0 0 0 0 0 0 0 0 0 0 0 0 0 0 0 0.25 0"/>
<feBlend mode="normal" in2="shape" result="effect1_innerShadow_24_2"/>
</filter>
<filter id="filter1_d_24_2" x="0.0999756" y="83" width="395.002" height="79.2" filterUnits="userSpaceOnUse" color-interpolation-filters="sRGB">
<feFlood flood-opacity="0" result="BackgroundImageFix"/>
<feColorMatrix in="SourceAlpha" type="matrix" values="0 0 0 0 0 0 0 0 0 0 0 0 0 0 0 0 0 0 127 0" result="hardAlpha"/>
<feOffset dy="4"/>
<feGaussianBlur stdDeviation="2"/>
<feComposite in2="hardAlpha" operator="out"/>
<feColorMatrix type="matrix" values="0 0 0 0 0 0 0 0 0 0 0 0 0 0 0 0 0 0 0.25 0"/>
<feBlend mode="normal" in2="BackgroundImageFix" result="effect1_dropShadow_24_2"/>
<feBlend mode="normal" in="SourceGraphic" in2="effect1_dropShadow_24_2" result="shape"/>
</filter>
<linearGradient id="paint0_linear_24_2" x1="392.935" y1="0.321594" x2="392.935" y2="147.879" gradientUnits="userSpaceOnUse">
<stop offset="0.075" stop-color="#2B0A6B"/>
<stop offset="0.27" stop-color="#4711B2"/>
<stop offset="0.535" stop-color="#5E17EB"/>
<stop offset="0.61" stop-color="#5E17EB"/>
<stop offset="0.78" stop-color="#5E17EB"/>
</linearGradient>
<linearGradient id="paint1_linear_24_2" x1="3" y1="129" x2="396" y2="129" gradientUnits="userSpaceOnUse">
<stop offset="0.455" stop-color="#F5F5F5"/>
<stop offset="0.4551" stop-color="#5E17EB"/>
</linearGradient>
<linearGradient id="paint2_linear_24_2" x1="3" y1="129" x2="396" y2="129" gradientUnits="userSpaceOnUse">
<stop offset="0.455"/>
<stop offset="0.4551" stop-color="#5E17EB"/>
</linearGradient>
<linearGradient id="paint3_linear_24_2" x1="3" y1="129" x2="396" y2="129" gradientUnits="userSpaceOnUse">
<stop offset="0.455"/>
<stop offset="0.4551" stop-color="#5E17EB"/>
</linearGradient>
</defs>
</svg>
