<svg width="466" height="175" viewBox="0 0 466 175" fill="none" xmlns="http://www.w3.org/2000/svg">
<g filter="url(#filter0_i_20_333)">
<mask id="mask0_20_333" style="mask-type:luminance" maskUnits="userSpaceOnUse" x="314" y="0" width="152" height="148">
<path d="M314 0H466V148H314V0Z" fill="white"/>
</mask>
<g mask="url(#mask0_20_333)">
<mask id="mask1_20_333" style="mask-type:luminance" maskUnits="userSpaceOnUse" x="314" y="0" width="152" height="148">
<path d="M450.898 147.868C451.182 147.87 451.465 147.861 451.748 147.846C452.03 147.831 452.313 147.807 452.595 147.774C452.876 147.742 453.158 147.701 453.436 147.653C453.716 147.603 453.994 147.547 454.269 147.482C454.546 147.417 454.821 147.343 455.092 147.263C455.363 147.182 455.633 147.094 455.899 146.996C456.168 146.9 456.43 146.796 456.692 146.683C456.953 146.572 457.211 146.452 457.464 146.326C457.718 146.197 457.969 146.064 458.215 145.922C458.461 145.78 458.704 145.631 458.941 145.475C459.179 145.32 459.411 145.157 459.64 144.988C459.869 144.819 460.091 144.642 460.31 144.461C460.529 144.278 460.741 144.09 460.948 143.895C461.157 143.7 461.359 143.498 461.554 143.293C461.75 143.086 461.94 142.874 462.124 142.655C462.307 142.438 462.485 142.215 462.656 141.988C462.826 141.759 462.991 141.526 463.148 141.288C463.306 141.051 463.457 140.809 463.601 140.563C463.744 140.315 463.881 140.065 464.01 139.811C464.139 139.557 464.261 139.299 464.377 139.037C464.49 138.776 464.597 138.511 464.697 138.244C464.796 137.975 464.887 137.705 464.972 137.431C465.055 137.159 465.131 136.884 465.199 136.605C465.267 136.328 465.328 136.049 465.379 135.769C465.432 135.487 465.476 135.204 465.511 134.92C465.547 134.638 465.574 134.353 465.595 134.069C465.613 133.783 465.625 133.497 465.629 133.212C465.63 132.926 465.625 132.64 465.612 132.355C465.6 132.069 465.578 131.783 465.547 131.5C465.518 131.216 465.481 130.932 465.433 130.649C465.388 130.367 465.333 130.087 465.272 129.808C465.209 129.529 465.14 129.252 465.062 128.977C464.984 128.703 464.899 128.429 464.804 128.161C464.711 127.891 464.609 127.624 464.5 127.359C464.392 127.095 464.275 126.835 464.151 126.577C464.027 126.32 463.896 126.067 463.757 125.817C463.62 125.568 463.474 125.323 463.321 125.082C463.169 124.841 463.009 124.605 462.843 124.372C462.678 124.141 462.505 123.914 462.326 123.693C462.147 123.471 461.961 123.255 461.771 123.045C461.579 122.833 461.381 122.628 461.177 122.429C460.975 122.229 460.767 122.036 460.551 121.849C460.337 121.663 460.117 121.482 459.893 121.307C459.667 121.133 459.438 120.965 459.204 120.804C458.97 120.643 458.731 120.49 458.488 120.342C458.244 120.195 457.996 120.055 457.745 119.923C457.494 119.79 457.24 119.665 456.982 119.547C456.722 119.431 456.461 119.32 456.196 119.217C455.932 119.116 455.664 119.02 455.394 118.935C455.124 118.847 454.851 118.769 454.576 118.697C454.303 118.627 454.027 118.564 453.747 118.509C453.469 118.454 453.19 118.408 452.909 118.369C452.627 118.331 452.345 118.3 452.064 118.278C451.781 118.256 451.497 118.242 451.214 118.237C450.931 118.232 450.647 118.235 450.364 118.245C450.081 118.257 449.797 118.276 449.516 118.304C449.233 118.331 448.951 118.367 448.671 118.411C448.391 118.456 448.113 118.507 447.835 118.567C447.558 118.627 447.283 118.695 447.01 118.772C446.737 118.849 446.466 118.933 446.198 119.025C445.93 119.118 445.663 119.217 445.4 119.325C445.137 119.432 444.878 119.547 444.622 119.67C444.367 119.793 444.114 119.923 443.865 120.06C443.617 120.197 443.373 120.342 443.132 120.495L408.919 85.9405C409.414 85.3008 409.88 84.6406 410.318 83.9599C410.754 83.2774 411.16 82.5778 411.533 81.8595C411.908 81.1411 412.249 80.4073 412.556 79.6581C412.864 78.9073 413.138 78.1461 413.379 77.3713C413.618 76.5965 413.821 75.8131 413.991 75.0195C414.161 74.2258 414.293 73.427 414.391 72.6214C414.488 71.8158 414.549 71.0085 414.574 70.1978C414.6 69.387 414.588 68.5763 414.541 67.7655C414.491 66.9565 414.408 66.1509 414.288 65.3487C414.167 64.5465 414.011 63.7512 413.82 62.9626C413.628 62.1741 413.402 61.3976 413.141 60.6296C412.88 59.8616 412.585 59.109 412.255 58.3684C411.926 57.6278 411.563 56.9043 411.17 56.1962C410.776 55.4881 410.35 54.8005 409.896 54.1317C409.439 53.4629 408.954 52.8164 408.44 52.1921C407.926 51.5678 407.385 50.9691 406.818 50.3944L421.944 30.9075C422.214 31.0341 422.487 31.1538 422.763 31.2633C423.04 31.3744 423.32 31.4771 423.603 31.5694C423.886 31.6635 424.171 31.749 424.46 31.8243C424.748 31.8995 425.038 31.968 425.33 32.0261C425.622 32.0843 425.915 32.1339 426.21 32.1732C426.505 32.2143 426.802 32.2451 427.099 32.2673C427.396 32.2895 427.693 32.3015 427.99 32.3066C428.288 32.31 428.585 32.3049 428.884 32.2895C429.181 32.2758 429.478 32.2519 429.773 32.2194C430.07 32.1869 430.365 32.1458 430.658 32.0962C430.952 32.0449 431.244 31.9851 431.532 31.9166C431.822 31.8482 432.11 31.7713 432.395 31.6857C432.68 31.6002 432.964 31.5044 433.242 31.4018C433.522 31.2975 433.798 31.1863 434.072 31.0666C434.345 30.9451 434.613 30.8168 434.877 30.68C435.144 30.5432 435.403 30.3995 435.659 30.2473C435.917 30.0933 436.168 29.9343 436.414 29.7649C436.662 29.5973 436.903 29.4211 437.139 29.2398C437.374 29.0568 437.605 28.867 437.831 28.6685C438.055 28.4718 438.274 28.2683 438.486 28.0579C438.698 27.8475 438.905 27.632 439.103 27.408C439.303 27.1856 439.495 26.9564 439.682 26.7221C439.867 26.486 440.045 26.2466 440.216 26.0003C440.387 25.7557 440.55 25.5043 440.706 25.2494C440.862 24.9928 441.01 24.7328 441.151 24.4677C441.292 24.2026 441.424 23.9341 441.548 23.6621C441.672 23.3885 441.787 23.1131 441.895 22.8326C442.002 22.5521 442.101 22.2698 442.192 21.9842C442.282 21.6968 442.364 21.4095 442.437 21.117C442.51 20.8262 442.574 20.5337 442.63 20.2396C442.684 19.9436 442.732 19.6477 442.769 19.3501C442.806 19.0525 442.835 18.7532 442.854 18.4539C442.874 18.1545 442.884 17.8535 442.886 17.5542C442.888 17.2531 442.879 16.9538 442.862 16.6545C442.847 16.3552 442.822 16.0558 442.786 15.7565C442.752 15.4589 442.708 15.163 442.655 14.8671C442.603 14.5712 442.542 14.277 442.472 13.9862C442.401 13.6937 442.323 13.4047 442.235 13.1173C442.147 12.8317 442.052 12.5478 441.946 12.2655C441.841 11.985 441.728 11.7079 441.607 11.4343C441.485 11.1589 441.356 10.8886 441.219 10.6235C441.079 10.3567 440.935 10.095 440.781 9.83843C440.628 9.58016 440.467 9.32872 440.297 9.08071C440.129 8.83441 439.953 8.59153 439.77 8.35549C439.587 8.11945 439.397 7.88854 439.2 7.66277C439.001 7.4387 438.798 7.21977 438.587 7.00767C438.377 6.79387 438.162 6.58862 437.938 6.39021C437.715 6.19009 437.486 5.99852 437.252 5.81379C437.018 5.62736 436.779 5.44947 436.533 5.28014C436.289 5.1091 436.038 4.94661 435.783 4.79096C435.529 4.63531 435.269 4.48821 435.006 4.34967C434.742 4.20941 434.474 4.07942 434.202 3.95627C433.931 3.83312 433.656 3.71852 433.378 3.61247C433.099 3.50642 432.818 3.40893 432.533 3.31999C432.248 3.23104 431.961 3.15065 431.673 3.08053C431.383 3.00869 431.093 2.9454 430.799 2.89238C430.506 2.83936 430.212 2.79489 429.917 2.75897C429.62 2.72476 429.323 2.69739 429.026 2.68029C428.729 2.66318 428.433 2.65463 428.134 2.65634C427.837 2.65634 427.539 2.6666 427.242 2.68713C426.945 2.70594 426.648 2.73331 426.353 2.77094C426.058 2.80857 425.764 2.85475 425.471 2.90948C425.179 2.96593 424.887 3.02921 424.599 3.10276C424.31 3.17631 424.024 3.25841 423.74 3.34906C423.457 3.43972 423.175 3.53892 422.897 3.64668C422.619 3.75444 422.346 3.87075 422.074 3.99561C421.803 4.12047 421.537 4.25217 421.274 4.39414C421.011 4.53439 420.753 4.6832 420.498 4.84056C420.246 4.99792 419.996 5.16212 419.752 5.33487C419.508 5.50592 419.27 5.68551 419.036 5.87195C418.804 6.05838 418.576 6.25337 418.354 6.45349C418.134 6.65361 417.918 6.86058 417.709 7.07438C417.499 7.28818 417.297 7.50883 417.102 7.7346C416.905 7.96038 416.717 8.193 416.536 8.43075C416.354 8.6685 416.179 8.91138 416.013 9.1611C415.845 9.40911 415.686 9.66226 415.533 9.92053C415.382 10.1788 415.238 10.4405 415.102 10.709C414.966 10.9759 414.837 11.2461 414.719 11.5215C414.598 11.7952 414.488 12.074 414.384 12.3562C414.281 12.6384 414.188 12.9223 414.101 13.2097C414.015 13.497 413.938 13.7861 413.87 14.0786C413.801 14.3711 413.742 14.6653 413.692 14.9612C413.641 15.2571 413.599 15.5547 413.567 15.8523C413.535 16.1516 413.511 16.4492 413.496 16.7503C413.48 17.0496 413.475 17.3489 413.479 17.65C413.482 17.9493 413.494 18.2503 413.516 18.5496C413.538 18.849 413.567 19.1466 413.608 19.4442C413.647 19.7418 413.694 20.0377 413.752 20.3336C413.809 20.6278 413.876 20.9203 413.95 21.2111C414.025 21.5018 414.108 21.7892 414.201 22.0748C414.293 22.3605 414.395 22.6427 414.503 22.9215C414.612 23.2003 414.731 23.4757 414.856 23.7494C414.982 24.0213 415.116 24.2881 415.258 24.5533C415.399 24.8167 415.55 25.0749 415.708 25.3298C415.865 25.5846 416.03 25.8344 416.203 26.079C416.376 26.3235 416.556 26.563 416.743 26.7956L401.6 46.2825C401.027 45.9353 400.443 45.6121 399.846 45.3093C399.251 45.0066 398.643 44.7261 398.026 44.4695C397.41 44.2129 396.784 43.9803 396.15 43.7716C395.515 43.5613 394.872 43.3765 394.224 43.2157C393.576 43.055 392.923 42.9198 392.265 42.8087C391.607 42.6975 390.945 42.6103 390.28 42.5504C389.615 42.4888 388.948 42.4529 388.282 42.4426C387.613 42.4307 386.946 42.4461 386.28 42.4854C385.613 42.5264 384.95 42.5914 384.288 42.6804C383.627 42.771 382.968 42.8856 382.315 43.0259C381.662 43.1661 381.016 43.3303 380.374 43.5202C379.735 43.7083 379.1 43.9222 378.476 44.1582C377.852 44.3959 377.236 44.6559 376.63 44.9399C376.025 45.2221 375.431 45.5282 374.848 45.8566C374.266 46.185 373.696 46.5357 373.139 46.9068C372.583 47.2797 372.04 47.6714 371.512 48.0836L346.901 23.1114C347.06 22.8565 347.211 22.5965 347.355 22.3331C347.499 22.068 347.633 21.7995 347.761 21.5275C347.888 21.2555 348.008 20.9802 348.119 20.6997C348.229 20.4209 348.331 20.1369 348.424 19.8513C348.519 19.5656 348.604 19.2766 348.68 18.9858C348.756 18.695 348.823 18.4008 348.882 18.1066C348.94 17.8107 348.991 17.5148 349.031 17.2155C349.072 16.9179 349.103 16.6186 349.126 16.3175C349.148 16.0182 349.162 15.7172 349.167 15.4161C349.17 15.1151 349.167 14.8141 349.153 14.513C349.14 14.212 349.116 13.9127 349.086 13.6133C349.053 13.314 349.013 13.0164 348.963 12.7188C348.914 12.4212 348.855 12.127 348.787 11.8328C348.721 11.5403 348.644 11.2495 348.56 10.9605C348.473 10.6714 348.38 10.3858 348.278 10.1035C348.176 9.81962 348.066 9.54082 347.947 9.26544C347.827 8.98835 347.7 8.71639 347.566 8.44785C347.43 8.17932 347.286 7.91591 347.135 7.65592C346.984 7.39594 346.824 7.14109 346.658 6.89136C346.492 6.64164 346.317 6.39705 346.135 6.15759C345.954 5.91984 345.766 5.68551 345.571 5.45802C345.375 5.23054 345.172 5.00989 344.963 4.79438C344.755 4.57886 344.539 4.37019 344.319 4.16836C344.096 3.96653 343.869 3.77154 343.637 3.58339C343.404 3.39525 343.165 3.21394 342.921 3.03948C342.676 2.86672 342.427 2.70081 342.174 2.54174C341.92 2.38438 341.66 2.23386 341.397 2.0919C341.134 1.94822 340.868 1.81481 340.597 1.68824C340.325 1.56338 340.05 1.44536 339.772 1.33589C339.494 1.22642 339.212 1.12551 338.929 1.03314C338.644 0.942491 338.357 0.85868 338.067 0.783421C337.779 0.709873 337.487 0.644876 337.194 0.588432C336.9 0.530278 336.605 0.484096 336.31 0.444756C336.013 0.407127 335.716 0.376339 335.419 0.357524C335.121 0.336999 334.822 0.325026 334.523 0.323316C334.225 0.321605 333.926 0.328447 333.628 0.343841C333.331 0.360945 333.032 0.386601 332.735 0.42081C332.439 0.455018 332.143 0.49778 331.85 0.550803C331.556 0.603826 331.263 0.665401 330.973 0.735529C330.683 0.805656 330.394 0.884336 330.109 0.973279C329.824 1.06051 329.541 1.15801 329.261 1.26234C328.981 1.36839 328.705 1.48299 328.433 1.60443C328.16 1.72758 327.89 1.85757 327.626 1.99612C327.361 2.13466 327.1 2.28176 326.844 2.43741C326.588 2.59134 326.336 2.75384 326.09 2.92317C325.844 3.09421 325.602 3.2721 325.368 3.45682C325.132 3.64155 324.901 3.83312 324.677 4.03324C324.453 4.23165 324.235 4.4369 324.024 4.64899C323.812 4.86108 323.607 5.08002 323.408 5.3058C323.21 5.52986 323.018 5.76077 322.833 5.99681C322.648 6.23456 322.472 6.47573 322.301 6.72374C322.131 6.97175 321.968 7.22319 321.814 7.48146C321.659 7.73802 321.512 8.00143 321.373 8.26655C321.234 8.53337 321.103 8.80362 320.981 9.079C320.857 9.35267 320.743 9.63147 320.638 9.91198C320.531 10.1942 320.435 10.4781 320.345 10.7655C320.256 11.0528 320.177 11.3436 320.105 11.6361C320.033 11.9286 319.971 12.2228 319.917 12.5187C319.863 12.8146 319.819 13.1122 319.783 13.4115C319.748 13.7108 319.72 14.0102 319.703 14.3112C319.685 14.6105 319.676 14.9116 319.676 15.2126C319.678 15.5136 319.686 15.8147 319.705 16.1157C319.724 16.415 319.753 16.7161 319.788 17.0137C319.826 17.313 319.871 17.6106 319.926 17.9065C319.98 18.2024 320.043 18.4966 320.116 18.7891C320.189 19.0816 320.268 19.3707 320.358 19.658C320.448 19.9454 320.547 20.2293 320.653 20.5098C320.76 20.792 320.876 21.0691 320.999 21.3428C321.123 21.6164 321.254 21.8867 321.395 22.1535C321.534 22.4186 321.681 22.6803 321.838 22.9386C321.994 23.1952 322.156 23.4466 322.328 23.6929C322.497 23.9409 322.676 24.1821 322.862 24.4181C323.047 24.6542 323.239 24.8851 323.439 25.1091C323.637 25.3332 323.843 25.5504 324.056 25.7625C324.269 25.9746 324.487 26.1799 324.711 26.3783C324.937 26.5767 325.166 26.7665 325.403 26.9513C325.639 27.136 325.88 27.3122 326.128 27.4815C326.374 27.6508 326.627 27.8133 326.883 27.9673C327.139 28.1212 327.4 28.2666 327.666 28.4051C327.931 28.542 328.201 28.672 328.474 28.7934C328.747 28.9148 329.024 29.0277 329.304 29.1321C329.583 29.2381 329.867 29.3339 330.153 29.4211C330.438 29.5084 330.727 29.5853 331.017 29.6555C331.309 29.7256 331.6 29.7855 331.894 29.8368C332.189 29.8881 332.484 29.9308 332.781 29.9651C333.078 29.9975 333.375 30.0232 333.674 30.0386C333.972 30.054 334.271 30.0591 334.569 30.0557C334.868 30.054 335.166 30.042 335.463 30.0198C335.762 29.9993 336.059 29.9685 336.354 29.9291C336.651 29.8898 336.946 29.8419 337.238 29.7837C337.531 29.7256 337.823 29.6606 338.111 29.5853C338.401 29.5084 338.688 29.4246 338.971 29.3322C339.255 29.2398 339.536 29.1372 339.815 29.0277C340.093 28.9183 340.368 28.7985 340.637 28.672C340.909 28.5454 341.175 28.4103 341.438 28.2666C341.701 28.1229 341.959 27.9724 342.212 27.8133L366.823 52.7788C366.192 53.5895 365.61 54.4344 365.076 55.3136C364.542 56.1911 364.058 57.0976 363.626 58.0332C363.195 58.9671 362.818 59.9232 362.496 60.9016C362.174 61.8799 361.907 62.8737 361.697 63.8811C361.488 64.8903 361.337 65.908 361.244 66.9343C361.149 67.9605 361.115 68.9902 361.139 70.0199C361.162 71.0513 361.244 72.0758 361.385 73.0969C361.524 74.1181 361.722 75.1272 361.978 76.1261L340.955 84.5483C340.79 84.3088 340.617 84.0745 340.439 83.8453C340.259 83.6161 340.074 83.392 339.882 83.1748C339.691 82.9558 339.492 82.7438 339.287 82.5385C339.082 82.3315 338.871 82.1314 338.656 81.9381C338.439 81.7449 338.218 81.5567 337.991 81.3771C337.764 81.1958 337.531 81.0231 337.294 80.8572C337.056 80.6895 336.814 80.5305 336.568 80.3782C336.32 80.226 336.069 80.0823 335.814 79.9438C335.558 79.8069 335.3 79.677 335.037 79.5555C334.774 79.4341 334.508 79.3212 334.238 79.2151C333.969 79.1091 333.697 79.0116 333.421 78.9209C333.146 78.832 332.868 78.7499 332.588 78.6781C332.308 78.6045 332.026 78.5395 331.743 78.4831C331.458 78.4266 331.173 78.3804 330.886 78.3411C330.6 78.3018 330.313 78.271 330.024 78.2487C329.736 78.2265 329.448 78.2128 329.158 78.2077C328.869 78.2026 328.579 78.2077 328.291 78.2197C328.001 78.2316 327.712 78.2522 327.426 78.283C327.137 78.312 326.85 78.3497 326.565 78.3976C326.28 78.4437 325.995 78.4985 325.714 78.5618C325.432 78.6268 325.151 78.6986 324.872 78.779C324.596 78.8594 324.319 78.9466 324.046 79.0441C323.773 79.1399 323.503 79.2459 323.237 79.3588C322.971 79.4717 322.708 79.5914 322.448 79.7197C322.189 79.848 321.933 79.9848 321.681 80.1285C321.429 80.2722 321.183 80.4244 320.938 80.5818C320.696 80.7408 320.458 80.9068 320.226 81.0795C319.992 81.2523 319.764 81.4319 319.542 81.6183C319.32 81.8047 319.103 81.9963 318.891 82.1964C318.68 82.3948 318.475 82.6001 318.275 82.8122C318.077 83.0243 317.883 83.2415 317.697 83.4638C317.51 83.6862 317.332 83.9154 317.159 84.148C316.986 84.3823 316.819 84.6201 316.66 84.8647C316.501 85.1076 316.35 85.3556 316.204 85.6087C316.059 85.8619 315.924 86.1184 315.793 86.3784C315.664 86.6401 315.542 86.9035 315.428 87.1721C315.315 87.4406 315.208 87.7108 315.111 87.9862C315.013 88.2599 314.923 88.537 314.841 88.8175C314.76 89.0963 314.685 89.3785 314.621 89.6624C314.555 89.9481 314.499 90.2337 314.45 90.5211C314.402 90.8084 314.361 91.0975 314.331 91.3866C314.299 91.6773 314.275 91.9664 314.261 92.2589C314.246 92.5496 314.241 92.8404 314.243 93.1329C314.246 93.4237 314.258 93.7162 314.277 94.0069C314.297 94.2977 314.324 94.5885 314.361 94.8775C314.399 95.1666 314.443 95.454 314.497 95.7413C314.551 96.0269 314.612 96.3126 314.684 96.5948C314.753 96.8787 314.831 97.1592 314.919 97.4363C315.006 97.7151 315.101 97.9905 315.203 98.2625C315.306 98.5361 315.417 98.8047 315.535 99.0698C315.654 99.3366 315.781 99.5983 315.915 99.8566C316.049 100.115 316.19 100.37 316.339 100.619C316.489 100.869 316.645 101.115 316.809 101.355C316.972 101.596 317.142 101.832 317.32 102.061C317.496 102.292 317.681 102.518 317.871 102.737C318.061 102.956 318.258 103.17 318.462 103.378C318.664 103.585 318.872 103.787 319.088 103.982C319.303 104.179 319.524 104.367 319.749 104.548C319.975 104.731 320.206 104.906 320.441 105.075C320.677 105.243 320.918 105.405 321.164 105.559C321.41 105.713 321.659 105.858 321.914 105.999C322.168 106.137 322.426 106.269 322.689 106.392C322.95 106.517 323.215 106.632 323.485 106.741C323.753 106.849 324.024 106.948 324.299 107.04C324.574 107.131 324.85 107.215 325.13 107.29C325.41 107.365 325.692 107.432 325.975 107.49C326.258 107.548 326.543 107.6 326.828 107.641C327.115 107.682 327.404 107.714 327.69 107.738C327.979 107.764 328.269 107.779 328.557 107.786C328.845 107.793 329.136 107.791 329.424 107.781C329.714 107.771 330.002 107.752 330.291 107.725C330.578 107.697 330.864 107.661 331.151 107.617C331.436 107.572 331.721 107.521 332.004 107.459C332.286 107.398 332.567 107.328 332.846 107.249C333.124 107.17 333.4 107.085 333.674 106.991C333.948 106.895 334.218 106.792 334.486 106.683C334.754 106.572 335.017 106.452 335.278 106.325C335.54 106.199 335.796 106.065 336.049 105.923C336.301 105.782 336.549 105.633 336.793 105.475C337.038 105.32 337.277 105.156 337.511 104.984C337.745 104.813 337.974 104.636 338.198 104.451C338.422 104.266 338.641 104.076 338.854 103.878C339.066 103.681 339.273 103.478 339.474 103.267C339.675 103.057 339.869 102.841 340.057 102.621C340.245 102.398 340.427 102.171 340.602 101.938C340.776 101.707 340.944 101.47 341.106 101.227C341.267 100.984 341.419 100.737 341.567 100.486C341.713 100.235 341.852 99.9797 341.983 99.7198C342.115 99.4598 342.239 99.1964 342.354 98.9295C342.469 98.661 342.578 98.3908 342.678 98.1171C342.778 97.8434 342.87 97.568 342.955 97.2892C343.038 97.0087 343.114 96.7282 343.182 96.4443C343.248 96.1604 343.308 95.8747 343.358 95.5891C343.409 95.3017 343.452 95.0127 343.486 94.7236C343.518 94.4328 343.543 94.1438 343.56 93.8513C343.577 93.5605 343.586 93.2697 343.586 92.9773C343.577 92.2315 343.513 91.4892 343.394 90.752L364.426 82.3298C364.657 82.7557 364.9 83.1748 365.152 83.5887C365.405 84.0009 365.67 84.4063 365.946 84.8048C366.221 85.2034 366.506 85.5933 366.803 85.9765C367.1 86.3596 367.405 86.7342 367.723 87.1002C368.038 87.4662 368.364 87.8237 368.7 88.1727C369.036 88.5199 369.38 88.8602 369.733 89.1887C370.087 89.5188 370.45 89.8386 370.82 90.1482C371.192 90.4578 371.57 90.7571 371.957 91.0462C372.344 91.3352 372.739 91.614 373.141 91.8809C373.543 92.1494 373.952 92.406 374.367 92.6506C374.783 92.8951 375.204 93.1295 375.633 93.3518C376.06 93.5742 376.495 93.7846 376.934 93.983C377.374 94.1814 377.818 94.3678 378.268 94.5423C378.717 94.7168 379.172 94.8792 379.63 95.0281C380.088 95.1769 380.549 95.3137 381.016 95.4386C381.481 95.5634 381.949 95.6746 382.42 95.7738C382.892 95.873 383.367 95.9585 383.842 96.0304C384.319 96.1039 384.797 96.1638 385.275 96.21C385.756 96.2579 386.236 96.2904 386.716 96.3109C387.198 96.3331 387.679 96.34 388.161 96.3348C388.643 96.328 389.123 96.3092 389.605 96.2784C390.085 96.2459 390.563 96.2014 391.042 96.1433C391.52 96.0851 391.997 96.0133 392.47 95.9295C392.945 95.8456 393.417 95.7481 393.887 95.6387C394.355 95.5292 394.821 95.4061 395.284 95.2709C395.746 95.1358 396.206 94.9887 396.66 94.8279C397.115 94.6689 397.564 94.4961 398.009 94.3114C398.455 94.1267 398.894 93.93 399.33 93.7213C399.765 93.5109 400.194 93.292 400.616 93.0594C401.039 92.8267 401.456 92.5839 401.867 92.329C402.275 92.0724 402.679 91.8073 403.074 91.5302C403.47 91.2531 403.858 90.9658 404.238 90.6682L438.452 125.222C438.104 125.78 437.795 126.358 437.525 126.957C437.254 127.555 437.025 128.171 436.835 128.8C436.647 129.43 436.499 130.07 436.396 130.72C436.29 131.37 436.229 132.023 436.212 132.681C436.194 133.34 436.219 133.995 436.289 134.65C436.358 135.305 436.47 135.952 436.625 136.591C436.779 137.229 436.976 137.857 437.213 138.47C437.451 139.082 437.727 139.677 438.045 140.252C438.36 140.828 438.713 141.381 439.103 141.909C439.492 142.438 439.914 142.937 440.37 143.408C440.825 143.88 441.31 144.317 441.824 144.725C442.338 145.13 442.876 145.501 443.438 145.835C444.001 146.168 444.583 146.462 445.185 146.719C445.787 146.974 446.403 147.188 447.032 147.36C447.662 147.533 448.301 147.661 448.948 147.749C449.596 147.836 450.245 147.879 450.898 147.877V147.868ZM328.89 101.174C328.625 101.174 328.36 101.162 328.097 101.134C327.834 101.109 327.573 101.069 327.315 101.018C327.056 100.967 326.8 100.902 326.547 100.825C326.294 100.748 326.045 100.657 325.8 100.556C325.556 100.454 325.319 100.341 325.084 100.214C324.852 100.089 324.625 99.9524 324.406 99.8053C324.185 99.6565 323.973 99.4991 323.768 99.3298C323.564 99.1605 323.369 98.9826 323.181 98.7944C322.994 98.6063 322.816 98.4096 322.648 98.2026C322.48 97.9974 322.324 97.7836 322.177 97.5629C322.029 97.3406 321.894 97.1131 321.768 96.8787C321.644 96.6427 321.53 96.4032 321.429 96.1569C321.327 95.9106 321.239 95.6609 321.161 95.4061C321.084 95.1512 321.02 94.8929 320.967 94.6312C320.915 94.3695 320.876 94.1061 320.85 93.841C320.823 93.5759 320.809 93.3108 320.809 93.044C320.809 92.7771 320.821 92.512 320.847 92.2469C320.872 91.9818 320.91 91.7184 320.96 91.4567C321.011 91.195 321.076 90.9367 321.152 90.6819C321.229 90.427 321.317 90.1756 321.417 89.9293C321.517 89.683 321.629 89.4418 321.753 89.2075C321.877 88.9714 322.012 88.7422 322.158 88.5199C322.304 88.2992 322.462 88.0837 322.628 87.8785C322.796 87.6715 322.972 87.4731 323.159 87.2849C323.344 87.0951 323.539 86.9172 323.744 86.7462C323.948 86.5768 324.158 86.4178 324.379 86.2689C324.598 86.1201 324.823 85.9833 325.056 85.8567C325.288 85.7302 325.527 85.6156 325.77 85.5129C326.014 85.4103 326.262 85.3197 326.515 85.241C326.767 85.1623 327.024 85.0973 327.283 85.0443C327.541 84.9913 327.802 84.9502 328.065 84.9228C328.328 84.8972 328.593 84.8818 328.856 84.8818C329.12 84.8801 329.385 84.8921 329.648 84.9177C329.911 84.9417 330.172 84.9793 330.432 85.0306C330.691 85.0819 330.947 85.1452 331.2 85.2222C331.453 85.2974 331.702 85.3864 331.947 85.4873C332.191 85.5882 332.43 85.7011 332.664 85.8242C332.898 85.9491 333.126 86.0859 333.346 86.2313C333.567 86.3784 333.779 86.5358 333.984 86.7051C334.189 86.8727 334.386 87.0506 334.573 87.2371C334.761 87.4252 334.939 87.6219 335.109 87.8271C335.277 88.0324 335.434 88.2445 335.584 88.4651C335.731 88.6858 335.869 88.9133 335.994 89.1476C336.12 89.3819 336.233 89.6214 336.337 89.8677C336.439 90.114 336.529 90.3637 336.608 90.6186C336.686 90.8717 336.751 91.13 336.805 91.3917C336.858 91.6517 336.898 91.9151 336.926 92.1802C336.953 92.4453 336.968 92.7104 336.97 92.9773C336.97 93.2441 336.958 93.5109 336.932 93.7777C336.907 94.0428 336.868 94.308 336.817 94.5697C336.766 94.8314 336.702 95.0913 336.625 95.3479C336.549 95.6028 336.459 95.8542 336.359 96.1022C336.257 96.3485 336.145 96.5897 336.02 96.8257C335.896 97.0618 335.76 97.291 335.613 97.5133C335.467 97.7357 335.309 97.9512 335.141 98.1581C334.973 98.3651 334.797 98.5618 334.608 98.7517C334.422 98.9415 334.225 99.1211 334.021 99.2904C333.816 99.4598 333.604 99.6206 333.383 99.7694C333.163 99.9165 332.937 100.055 332.703 100.182C332.469 100.308 332.23 100.423 331.986 100.524C331.741 100.626 331.492 100.717 331.237 100.796C330.985 100.873 330.729 100.938 330.467 100.991C330.208 101.044 329.946 101.083 329.682 101.109C329.419 101.136 329.154 101.15 328.89 101.15V101.174ZM458.977 133.077C458.979 133.343 458.965 133.61 458.939 133.875C458.914 134.14 458.875 134.406 458.824 134.667C458.773 134.929 458.709 135.187 458.632 135.442C458.556 135.699 458.466 135.948 458.366 136.196C458.264 136.443 458.152 136.684 458.027 136.918C457.903 137.154 457.767 137.383 457.62 137.606C457.474 137.826 457.316 138.042 457.148 138.247C456.98 138.454 456.804 138.653 456.615 138.841C456.429 139.029 456.234 139.208 456.028 139.378C455.825 139.547 455.613 139.706 455.392 139.855C455.172 140.004 454.946 140.141 454.712 140.267C454.48 140.392 454.24 140.507 453.996 140.609C453.75 140.712 453.502 140.801 453.25 140.88C452.995 140.956 452.739 141.021 452.479 141.075C452.22 141.126 451.959 141.165 451.696 141.193C451.431 141.218 451.168 141.232 450.904 141.232C450.639 141.232 450.374 141.218 450.111 141.193C449.848 141.167 449.585 141.128 449.326 141.076C449.066 141.025 448.81 140.96 448.557 140.883C448.303 140.804 448.055 140.715 447.811 140.613C447.565 140.512 447.326 140.397 447.093 140.272C446.859 140.146 446.632 140.009 446.413 139.862C446.193 139.713 445.98 139.554 445.775 139.385C445.57 139.215 445.375 139.037 445.187 138.849C445 138.659 444.822 138.463 444.654 138.256C444.486 138.05 444.328 137.837 444.182 137.614C444.035 137.392 443.899 137.164 443.773 136.928C443.648 136.694 443.536 136.453 443.434 136.207C443.332 135.959 443.244 135.709 443.166 135.452C443.09 135.197 443.025 134.939 442.974 134.678C442.922 134.416 442.883 134.152 442.857 133.887C442.83 133.62 442.818 133.355 442.818 133.089C442.818 132.822 442.83 132.555 442.856 132.29C442.883 132.023 442.922 131.76 442.973 131.498C443.024 131.236 443.088 130.978 443.164 130.723C443.242 130.466 443.331 130.217 443.432 129.969C443.533 129.722 443.646 129.481 443.772 129.247C443.896 129.011 444.031 128.782 444.179 128.561C444.325 128.339 444.483 128.125 444.65 127.918C444.818 127.713 444.997 127.514 445.183 127.326C445.37 127.136 445.567 126.958 445.77 126.789C445.975 126.62 446.187 126.461 446.408 126.312C446.629 126.163 446.854 126.026 447.088 125.901C447.321 125.775 447.56 125.662 447.806 125.559C448.05 125.457 448.298 125.368 448.552 125.289C448.805 125.212 449.061 125.147 449.321 125.096C449.58 125.043 449.842 125.003 450.106 124.978C450.369 124.952 450.634 124.938 450.898 124.938C451.161 124.938 451.424 124.952 451.687 124.978C451.95 125.005 452.21 125.044 452.469 125.096C452.729 125.147 452.983 125.212 453.236 125.289C453.489 125.366 453.737 125.457 453.981 125.558C454.225 125.66 454.463 125.773 454.695 125.898C454.929 126.023 455.155 126.16 455.374 126.307C455.594 126.454 455.806 126.613 456.01 126.78C456.215 126.95 456.41 127.128 456.597 127.316C456.783 127.502 456.961 127.699 457.129 127.904C457.297 128.109 457.455 128.323 457.601 128.544C457.749 128.765 457.886 128.992 458.01 129.226C458.135 129.461 458.249 129.7 458.351 129.946C458.453 130.191 458.543 130.441 458.621 130.696C458.697 130.949 458.763 131.207 458.816 131.467C458.868 131.729 458.907 131.99 458.934 132.256C458.962 132.521 458.977 132.786 458.977 133.051V133.077ZM428.131 9.34412C428.395 9.34412 428.658 9.3578 428.923 9.38346C429.186 9.40911 429.447 9.44845 429.707 9.50148C429.966 9.55279 430.222 9.61779 430.475 9.69476C430.73 9.77173 430.977 9.86238 431.222 9.965C431.466 10.0659 431.705 10.1805 431.939 10.3054C432.172 10.432 432.399 10.5688 432.619 10.7176C432.838 10.8647 433.052 11.0238 433.256 11.1931C433.461 11.3624 433.656 11.542 433.844 11.7302C434.031 11.9183 434.207 12.1167 434.375 12.322C434.543 12.5289 434.701 12.7427 434.849 12.9651C434.996 13.1857 435.132 13.4149 435.256 13.651C435.381 13.8853 435.493 14.1265 435.595 14.3728C435.697 14.6191 435.785 14.8705 435.861 15.1254C435.939 15.3819 436.004 15.6402 436.055 15.9019C436.106 16.1636 436.145 16.427 436.172 16.6921C436.197 16.9572 436.211 17.2241 436.211 17.4909C436.211 17.7577 436.197 18.0228 436.172 18.2897C436.145 18.5548 436.106 18.8182 436.055 19.0799C436.004 19.3416 435.939 19.5999 435.861 19.8547C435.785 20.1113 435.697 20.361 435.595 20.609C435.493 20.8553 435.381 21.0948 435.256 21.3308C435.132 21.5668 434.996 21.7943 434.849 22.0167C434.701 22.239 434.543 22.4528 434.375 22.6581C434.207 22.8651 434.031 23.0618 433.844 23.2516C433.656 23.4398 433.461 23.6194 433.256 23.7887C433.052 23.958 432.838 24.1154 432.619 24.2642C432.399 24.413 432.172 24.5498 431.939 24.6747C431.705 24.8013 431.466 24.9142 431.222 25.0168C430.977 25.1194 430.73 25.2083 430.475 25.287C430.222 25.364 429.966 25.429 429.707 25.4803C429.447 25.5333 429.186 25.5727 428.923 25.5983C428.658 25.624 428.395 25.6377 428.131 25.6377C427.866 25.6377 427.601 25.624 427.338 25.5983C427.075 25.5727 426.813 25.5333 426.553 25.4803C426.293 25.429 426.037 25.364 425.784 25.287C425.532 25.2083 425.282 25.1194 425.038 25.0168C424.794 24.9142 424.555 24.8013 424.32 24.6747C424.088 24.5498 423.861 24.413 423.642 24.2642C423.421 24.1154 423.209 23.958 423.004 23.7887C422.8 23.6194 422.604 23.4398 422.417 23.2516C422.23 23.0618 422.052 22.8651 421.884 22.6581C421.716 22.4528 421.559 22.239 421.411 22.0167C421.265 21.7943 421.129 21.5668 421.004 21.3308C420.88 21.0948 420.766 20.8553 420.665 20.609C420.565 20.361 420.475 20.1113 420.398 19.8547C420.322 19.5999 420.258 19.3416 420.205 19.0799C420.154 18.8182 420.115 18.5548 420.09 18.2897C420.062 18.0228 420.051 17.7577 420.051 17.4909C420.051 17.2241 420.064 16.9572 420.091 16.6921C420.117 16.427 420.156 16.1636 420.208 15.9019C420.261 15.6402 420.325 15.3819 420.402 15.1271C420.48 14.8722 420.568 14.6225 420.67 14.3762C420.772 14.1299 420.884 13.8887 421.009 13.6544C421.135 13.4184 421.27 13.1909 421.416 12.9685C421.564 12.7462 421.722 12.5324 421.889 12.3271C422.057 12.1201 422.234 11.9234 422.422 11.7353C422.609 11.5472 422.804 11.3676 423.009 11.1982C423.213 11.0289 423.425 10.8698 423.645 10.7227C423.864 10.5739 424.091 10.4371 424.324 10.3105C424.558 10.1856 424.797 10.0711 425.041 9.96842C425.284 9.8658 425.533 9.77686 425.786 9.69818C426.039 9.62121 426.295 9.55621 426.555 9.50319C426.814 9.45016 427.075 9.41082 427.338 9.38517C427.601 9.3578 427.866 9.34412 428.131 9.34412ZM326.408 15.24C326.408 14.9731 326.421 14.7063 326.447 14.4412C326.472 14.1761 326.511 13.911 326.564 13.6493C326.615 13.3876 326.679 13.1293 326.755 12.8744C326.834 12.6196 326.922 12.3682 327.024 12.1219C327.124 11.8756 327.237 11.6344 327.363 11.3983C327.487 11.164 327.622 10.9348 327.77 10.7142C327.918 10.4918 328.074 10.278 328.242 10.0711C328.409 9.8658 328.588 9.66739 328.774 9.47924C328.961 9.28938 329.158 9.1115 329.363 8.94217C329.566 8.77283 329.779 8.61376 329.999 8.46496C330.22 8.31786 330.445 8.18103 330.679 8.05445C330.912 7.92959 331.151 7.81499 331.395 7.71237C331.639 7.61145 331.889 7.5208 332.142 7.44383C332.396 7.36686 332.652 7.30187 332.912 7.24884C333.171 7.19753 333.433 7.15819 333.696 7.13253C333.959 7.10517 334.223 7.09319 334.488 7.09319C334.752 7.09319 335.017 7.10517 335.28 7.13253C335.543 7.15819 335.804 7.19753 336.064 7.24884C336.323 7.30187 336.579 7.36686 336.834 7.44383C337.087 7.5208 337.336 7.61145 337.58 7.71237C337.825 7.81499 338.064 7.92959 338.296 8.05445C338.53 8.18103 338.756 8.31786 338.977 8.46496C339.197 8.61376 339.409 8.77283 339.614 8.94217C339.818 9.1115 340.015 9.28938 340.201 9.47924C340.388 9.66739 340.566 9.8658 340.734 10.0711C340.902 10.278 341.06 10.4918 341.206 10.7142C341.353 10.9348 341.489 11.164 341.614 11.3983C341.738 11.6344 341.852 11.8756 341.952 12.1219C342.054 12.3682 342.144 12.6196 342.22 12.8744C342.296 13.1293 342.361 13.3876 342.412 13.6493C342.464 13.911 342.503 14.1761 342.529 14.4412C342.554 14.7063 342.568 14.9731 342.568 15.24C342.568 15.5068 342.554 15.7719 342.529 16.037C342.503 16.3039 342.464 16.5673 342.412 16.829C342.361 17.0907 342.296 17.3489 342.22 17.6038C342.144 17.8586 342.054 18.1101 341.952 18.3564C341.852 18.6027 341.738 18.8438 341.614 19.0799C341.489 19.3142 341.353 19.5434 341.206 19.7658C341.06 19.9864 340.902 20.2019 340.734 20.4072C340.566 20.6141 340.388 20.8108 340.201 20.999C340.015 21.1888 339.818 21.3667 339.614 21.5361C339.409 21.7054 339.197 21.8645 338.977 22.0133C338.756 22.1604 338.53 22.2989 338.296 22.4238C338.064 22.5503 337.825 22.6632 337.58 22.7659C337.336 22.8685 337.087 22.9574 336.834 23.0344C336.579 23.1131 336.323 23.1781 336.064 23.2294C335.804 23.2807 335.543 23.32 335.28 23.3474C335.017 23.3731 334.752 23.385 334.488 23.385C334.223 23.385 333.959 23.3731 333.696 23.3474C333.433 23.32 333.171 23.2807 332.912 23.2294C332.651 23.1781 332.394 23.1131 332.142 23.0344C331.889 22.9574 331.639 22.8685 331.395 22.7659C331.149 22.6632 330.912 22.5503 330.678 22.4238C330.444 22.2989 330.218 22.1621 329.997 22.0133C329.777 21.8645 329.565 21.7071 329.359 21.5378C329.154 21.3684 328.959 21.1888 328.771 21.0007C328.584 20.8108 328.406 20.6141 328.238 20.4072C328.07 20.2019 327.912 19.9881 327.767 19.7658C327.619 19.5434 327.483 19.3159 327.358 19.0799C327.232 18.8456 327.119 18.6044 327.018 18.3581C326.917 18.1118 326.827 17.8603 326.75 17.6055C326.672 17.3489 326.608 17.0907 326.557 16.829C326.504 16.5673 326.465 16.3039 326.44 16.0387C326.413 15.7719 326.399 15.5068 326.399 15.24H326.408ZM367.758 69.3802C367.758 68.7165 367.79 68.0529 367.853 67.3909C367.918 66.7307 368.014 66.0739 368.142 65.4222C368.27 64.7706 368.43 64.1274 368.62 63.4912C368.812 62.8549 369.032 62.2306 369.285 61.6165C369.536 61.0025 369.818 60.4021 370.126 59.8155C370.437 59.2288 370.776 58.6609 371.141 58.1067C371.507 57.5543 371.899 57.0223 372.316 56.5075C372.734 55.9944 373.177 55.5018 373.641 55.0314C374.108 54.5627 374.595 54.1163 375.104 53.6938C375.613 53.2731 376.142 52.8762 376.69 52.5068C377.236 52.1391 377.801 51.797 378.383 51.484C378.963 51.1692 379.559 50.8853 380.168 50.6322C380.775 50.3773 381.396 50.1532 382.025 49.96C382.656 49.7667 383.294 49.6059 383.94 49.4759C384.587 49.3459 385.238 49.2484 385.893 49.1834C386.549 49.1184 387.206 49.0842 387.866 49.0842C388.524 49.0842 389.182 49.1167 389.837 49.1817C390.494 49.2467 391.145 49.3442 391.791 49.4742C392.438 49.6025 393.076 49.7633 393.707 49.9565C394.338 50.1498 394.957 50.3739 395.566 50.627C396.175 50.8819 396.769 51.1658 397.351 51.4788C397.933 51.7918 398.496 52.1322 399.044 52.5017C399.592 52.8711 400.121 53.2662 400.63 53.687C401.14 54.1095 401.627 54.5542 402.094 55.0245C402.559 55.4932 403.001 55.9858 403.419 56.4989C403.838 57.0121 404.23 57.5457 404.596 58.0982C404.961 58.6507 405.3 59.2202 405.611 59.8052C405.921 60.3919 406.203 60.9922 406.454 61.6063C406.706 62.2203 406.929 62.8446 407.119 63.4809C407.31 64.1155 407.47 64.7603 407.599 65.412C407.728 66.0637 407.823 66.7187 407.887 67.3807C407.952 68.0426 407.984 68.7046 407.984 69.3682C407.984 70.0336 407.952 70.6955 407.887 71.3574C407.823 72.0194 407.724 72.6745 407.597 73.3261C407.468 73.9778 407.307 74.6209 407.115 75.2572C406.924 75.8935 406.703 76.5178 406.45 77.1318C406.198 77.7459 405.916 78.3445 405.605 78.9312C405.293 79.5162 404.956 80.0857 404.589 80.6382C404.223 81.1907 403.831 81.7226 403.412 82.2358C402.995 82.7489 402.552 83.2415 402.085 83.7101C401.619 84.1805 401.132 84.6252 400.621 85.046C400.112 85.4685 399.583 85.8636 399.035 86.2313C398.487 86.6008 397.922 86.9411 397.34 87.2542C396.76 87.5672 396.165 87.8494 395.556 88.1042C394.947 88.3574 394.326 88.5814 393.697 88.773C393.065 88.9663 392.426 89.1271 391.78 89.2554C391.133 89.3853 390.484 89.4811 389.827 89.5461C389.17 89.6111 388.514 89.6436 387.854 89.6419C387.196 89.6419 386.539 89.6077 385.884 89.5427C385.23 89.476 384.58 89.3785 383.935 89.2485C383.289 89.1185 382.651 88.9577 382.022 88.7645C381.392 88.5712 380.773 88.3471 380.166 88.094C379.557 87.8391 378.963 87.5552 378.383 87.2422C377.803 86.9292 377.239 86.5888 376.692 86.2211C376.144 85.8516 375.616 85.4565 375.107 85.0357C374.598 84.615 374.111 84.1703 373.646 83.7016C373.18 83.2329 372.739 82.742 372.322 82.2289C371.903 81.7158 371.511 81.1838 371.144 80.6331C370.779 80.0806 370.44 79.5128 370.13 78.9278C369.819 78.3428 369.538 77.7442 369.285 77.1318C369.032 76.5195 368.81 75.8952 368.618 75.2606C368.425 74.6261 368.265 73.9829 368.135 73.333C368.006 72.6813 367.907 72.0262 367.843 71.366C367.777 70.7058 367.743 70.0438 367.741 69.3802H367.758Z" fill="white"/>
</mask>
<g mask="url(#mask1_20_333)">
<path d="M314.241 0.321594V147.879H465.63V0.321594H314.241Z" fill="url(#paint0_linear_20_333)"/>
</g>
</g>
</g>
<g filter="url(#filter1_i_20_333)">
<path d="M1.1 111.95H8.5V95.1H21.1V111.95H30.8V122.5H21.1V137.35C21.1 139.317 21.4167 140.85 22.05 141.95C22.6833 143.017 23.6833 143.55 25.05 143.55C26.0833 143.55 26.9333 143.35 27.6 142.95C28.2667 142.517 28.6667 142.217 28.8 142.05L33.3 151.15C33.1 151.35 32.45 151.7 31.35 152.2C30.2833 152.7 28.9 153.15 27.2 153.55C25.5333 153.983 23.65 154.2 21.55 154.2C17.7833 154.2 14.6667 153.117 12.2 150.95C9.73333 148.75 8.5 145.35 8.5 140.75V122.5H1.1V111.95ZM49.1086 135.3C49.2086 137.167 49.7086 138.833 50.6086 140.3C51.5086 141.767 52.8086 142.917 54.5086 143.75C56.2419 144.583 58.3086 145 60.7086 145C62.8753 145 64.7753 144.733 66.4086 144.2C68.0753 143.667 69.4753 143.017 70.6086 142.25C71.7753 141.45 72.6419 140.683 73.2086 139.95L78.4586 147.75C77.5253 148.917 76.2753 150 74.7086 151C73.1753 151.967 71.2086 152.733 68.8086 153.3C66.4419 153.9 63.4753 154.2 59.9086 154.2C55.4086 154.2 51.4586 153.317 48.0586 151.55C44.6586 149.783 42.0086 147.233 40.1086 143.9C38.2086 140.567 37.2586 136.6 37.2586 132C37.2586 128 38.1086 124.4 39.8086 121.2C41.5086 117.967 43.9753 115.417 47.2086 113.55C50.4753 111.683 54.3919 110.75 58.9586 110.75C63.2586 110.75 66.9753 111.583 70.1086 113.25C73.2753 114.883 75.7253 117.283 77.4586 120.45C79.1919 123.617 80.0586 127.483 80.0586 132.05C80.0586 132.317 80.0419 132.867 80.0086 133.7C80.0086 134.5 79.9753 135.033 79.9086 135.3H49.1086ZM68.1586 127.45C68.1253 126.383 67.7919 125.233 67.1586 124C66.5586 122.767 65.6086 121.717 64.3086 120.85C63.0086 119.983 61.2753 119.55 59.1086 119.55C56.9419 119.55 55.1586 119.967 53.7586 120.8C52.3919 121.633 51.3586 122.667 50.6586 123.9C49.9586 125.1 49.5586 126.283 49.4586 127.45H68.1586ZM109.734 144.1C111.901 144.1 113.668 143.733 115.034 143C116.401 142.267 117.301 141.717 117.734 141.35L123.634 150.1C123.168 150.467 122.301 150.983 121.034 151.65C119.768 152.317 118.151 152.9 116.184 153.4C114.251 153.933 112.034 154.2 109.534 154.2C105.201 154.2 101.318 153.333 97.8844 151.6C94.451 149.833 91.7344 147.333 89.7344 144.1C87.7677 140.833 86.7844 136.95 86.7844 132.45C86.7844 127.917 87.7677 124.033 89.7344 120.8C91.7344 117.567 94.451 115.083 97.8844 113.35C101.318 111.617 105.201 110.75 109.534 110.75C112.001 110.75 114.184 111.017 116.084 111.55C118.018 112.083 119.634 112.7 120.934 113.4C122.234 114.067 123.134 114.617 123.634 115.05L117.584 123.85C117.351 123.583 116.901 123.217 116.234 122.75C115.568 122.283 114.684 121.85 113.584 121.45C112.518 121.05 111.234 120.85 109.734 120.85C107.901 120.85 106.151 121.333 104.484 122.3C102.851 123.267 101.518 124.617 100.484 126.35C99.451 128.083 98.9344 130.117 98.9344 132.45C98.9344 134.783 99.451 136.833 100.484 138.6C101.518 140.333 102.851 141.683 104.484 142.65C106.151 143.617 107.901 144.1 109.734 144.1ZM157.322 110.75C160.122 110.75 162.855 111.333 165.522 112.5C168.189 113.633 170.372 115.45 172.072 117.95C173.805 120.45 174.672 123.717 174.672 127.75V153H161.922V129.95C161.922 126.583 161.155 124.083 159.622 122.45C158.122 120.817 156.105 120 153.572 120C151.872 120 150.239 120.467 148.672 121.4C147.139 122.3 145.872 123.567 144.872 125.2C143.905 126.8 143.422 128.633 143.422 130.7V153H130.672V84.2H143.422V118.5C143.755 117.367 144.572 116.2 145.872 115C147.172 113.8 148.822 112.8 150.822 112C152.822 111.167 154.989 110.75 157.322 110.75ZM194.628 154.2C192.795 154.2 191.211 153.55 189.878 152.25C188.578 150.917 187.928 149.333 187.928 147.5C187.928 145.6 188.578 144 189.878 142.7C191.211 141.367 192.795 140.7 194.628 140.7C196.528 140.7 198.128 141.367 199.428 142.7C200.728 144 201.378 145.6 201.378 147.5C201.378 149.333 200.728 150.917 199.428 152.25C198.128 153.55 196.528 154.2 194.628 154.2Z" fill="url(#paint1_linear_20_333)"/>
<path d="M212.335 111.95H220.235V100.55C220.235 96.45 221.002 93.1167 222.535 90.55C224.068 87.95 226.018 86.05 228.385 84.85C230.785 83.6167 233.252 83 235.785 83C238.885 83 241.252 83.4333 242.885 84.3C244.552 85.1333 245.568 85.7167 245.935 86.05L241.735 94.05C241.535 93.85 241.035 93.5 240.235 93C239.435 92.4667 238.352 92.2 236.985 92.2C235.985 92.2 235.018 92.4333 234.085 92.9C233.185 93.3667 232.418 94.2833 231.785 95.65C231.152 97.0167 230.835 99.0167 230.835 101.65V111.95H242.085V120.95H230.835V153H220.235V120.95H212.335V111.95ZM269.031 154.2C264.731 154.2 260.898 153.267 257.531 151.4C254.198 149.5 251.581 146.933 249.681 143.7C247.781 140.433 246.831 136.733 246.831 132.6C246.831 128.467 247.781 124.75 249.681 121.45C251.581 118.15 254.198 115.55 257.531 113.65C260.898 111.717 264.731 110.75 269.031 110.75C273.331 110.75 277.131 111.717 280.431 113.65C283.731 115.55 286.315 118.15 288.181 121.45C290.081 124.75 291.031 128.467 291.031 132.6C291.031 136.733 290.081 140.433 288.181 143.7C286.315 146.933 283.731 149.5 280.431 151.4C277.131 153.267 273.331 154.2 269.031 154.2ZM269.031 145.2C271.431 145.2 273.515 144.65 275.281 143.55C277.048 142.45 278.415 140.95 279.381 139.05C280.348 137.15 280.831 134.983 280.831 132.55C280.831 130.117 280.348 127.95 279.381 126.05C278.415 124.117 277.048 122.583 275.281 121.45C273.515 120.317 271.431 119.75 269.031 119.75C266.631 119.75 264.531 120.317 262.731 121.45C260.965 122.583 259.581 124.117 258.581 126.05C257.615 127.95 257.131 130.117 257.131 132.55C257.131 134.983 257.615 137.15 258.581 139.05C259.581 140.95 260.965 142.45 262.731 143.55C264.531 144.65 266.631 145.2 269.031 145.2ZM310.967 153H300.217V84.2H310.967V153ZM323.426 153V111.95H334.076V153H323.426ZM328.876 99.65C327.076 99.65 325.526 99 324.226 97.7C322.959 96.4 322.326 94.85 322.326 93.05C322.326 91.25 322.959 89.7 324.226 88.4C325.526 87.0667 327.076 86.4 328.876 86.4C330.076 86.4 331.176 86.7167 332.176 87.35C333.209 87.95 334.026 88.75 334.626 89.75C335.259 90.7167 335.576 91.8167 335.576 93.05C335.576 94.85 334.926 96.4 333.626 97.7C332.326 99 330.742 99.65 328.876 99.65ZM366.102 154.2C361.802 154.2 357.968 153.267 354.602 151.4C351.268 149.5 348.652 146.933 346.752 143.7C344.852 140.433 343.902 136.733 343.902 132.6C343.902 128.467 344.852 124.75 346.752 121.45C348.652 118.15 351.268 115.55 354.602 113.65C357.968 111.717 361.802 110.75 366.102 110.75C370.402 110.75 374.202 111.717 377.502 113.65C380.802 115.55 383.385 118.15 385.252 121.45C387.152 124.75 388.102 128.467 388.102 132.6C388.102 136.733 387.152 140.433 385.252 143.7C383.385 146.933 380.802 149.5 377.502 151.4C374.202 153.267 370.402 154.2 366.102 154.2ZM366.102 145.2C368.502 145.2 370.585 144.65 372.352 143.55C374.118 142.45 375.485 140.95 376.452 139.05C377.418 137.15 377.902 134.983 377.902 132.55C377.902 130.117 377.418 127.95 376.452 126.05C375.485 124.117 374.118 122.583 372.352 121.45C370.585 120.317 368.502 119.75 366.102 119.75C363.702 119.75 361.602 120.317 359.802 121.45C358.035 122.583 356.652 124.117 355.652 126.05C354.685 127.95 354.202 130.117 354.202 132.55C354.202 134.983 354.685 137.15 355.652 139.05C356.652 140.95 358.035 142.45 359.802 143.55C361.602 144.65 363.702 145.2 366.102 145.2Z" fill="url(#paint2_linear_20_333)"/>
</g>
<defs>
<filter id="filter0_i_20_333" x="314.242" y="0.323059" width="151.387" height="151.554" filterUnits="userSpaceOnUse" color-interpolation-filters="sRGB">
<feFlood flood-opacity="0" result="BackgroundImageFix"/>
<feBlend mode="normal" in="SourceGraphic" in2="BackgroundImageFix" result="shape"/>
<feColorMatrix in="SourceAlpha" type="matrix" values="0 0 0 0 0 0 0 0 0 0 0 0 0 0 0 0 0 0 127 0" result="hardAlpha"/>
<feOffset dy="4"/>
<feGaussianBlur stdDeviation="2"/>
<feComposite in2="hardAlpha" operator="arithmetic" k2="-1" k3="1"/>
<feColorMatrix type="matrix" values="0 0 0 0 0 0 0 0 0 0 0 0 0 0 0 0 0 0 0.25 0"/>
<feBlend mode="normal" in2="shape" result="effect1_innerShadow_20_333"/>
</filter>
<filter id="filter1_i_20_333" x="1.09998" y="83" width="387.002" height="75.2" filterUnits="userSpaceOnUse" color-interpolation-filters="sRGB">
<feFlood flood-opacity="0" result="BackgroundImageFix"/>
<feBlend mode="normal" in="SourceGraphic" in2="BackgroundImageFix" result="shape"/>
<feColorMatrix in="SourceAlpha" type="matrix" values="0 0 0 0 0 0 0 0 0 0 0 0 0 0 0 0 0 0 127 0" result="hardAlpha"/>
<feOffset dy="4"/>
<feGaussianBlur stdDeviation="2"/>
<feComposite in2="hardAlpha" operator="arithmetic" k2="-1" k3="1"/>
<feColorMatrix type="matrix" values="0 0 0 0 0 0 0 0 0 0 0 0 0 0 0 0 0 0 0.25 0"/>
<feBlend mode="normal" in2="shape" result="effect1_innerShadow_20_333"/>
</filter>
<linearGradient id="paint0_linear_20_333" x1="389.935" y1="0.321594" x2="389.935" y2="147.879" gradientUnits="userSpaceOnUse">
<stop offset="0.075" stop-color="#2B0A6B"/>
<stop offset="0.27" stop-color="#4711B2"/>
<stop offset="0.535" stop-color="#5E17EB"/>
<stop offset="0.61" stop-color="#5E17EB"/>
<stop offset="0.78" stop-color="#5E17EB"/>
</linearGradient>
<linearGradient id="paint1_linear_20_333" x1="0" y1="129" x2="393" y2="129" gradientUnits="userSpaceOnUse">
<stop offset="0.455"/>
<stop offset="0.4551" stop-color="#5E17EB"/>
</linearGradient>
<linearGradient id="paint2_linear_20_333" x1="0" y1="129" x2="393" y2="129" gradientUnits="userSpaceOnUse">
<stop offset="0.455"/>
<stop offset="0.4551" stop-color="#5E17EB"/>
</linearGradient>
</defs>
</svg>
